<svg width="379" height="160" viewBox="0 0 379 160" fill="none" xmlns="http://www.w3.org/2000/svg">
<g clip-path="url(#clip0_2036_3071)">
<path d="M228.475 160.268C152.326 160.268 76.3119 160.268 0.283203 160.268C0.283203 106.951 0.283203 53.634 0.283203 0.292603C126.57 0.292603 252.872 0.292603 379.221 0.292603C379.221 53.6018 379.221 106.935 379.221 160.268C329.037 160.268 278.823 160.268 228.475 160.268ZM37.5634 115.1C37.5712 114.854 37.5789 114.608 37.627 114.137C37.6385 113.679 37.6501 113.221 37.8322 112.684C37.84 112.438 37.8477 112.192 37.8958 111.716C37.9073 111.17 37.9189 110.624 38.101 109.999C38.1088 109.753 38.1165 109.508 38.1645 109.036C38.1761 108.578 38.1877 108.121 38.3698 107.583C38.3776 107.337 38.3853 107.092 38.4333 106.615C38.4449 106.069 38.4565 105.524 38.6283 104.911C38.479 104.651 38.3297 104.391 38.1162 103.967C37.7861 103.58 37.4559 103.194 37.0955 102.619C36.8862 102.338 36.677 102.058 36.2751 101.519C36.3049 102.195 36.3186 102.504 36.2314 103.019C36.157 103.841 36.1022 104.666 36.0046 105.485C35.6588 108.39 35.2744 111.29 34.9505 114.197C34.647 116.92 34.4016 119.649 34.1221 122.461C32.5 122.461 31.0321 122.461 29.4228 122.438C29.3964 122.519 29.37 122.599 29.3032 122.902C29.3167 123.277 29.3301 123.652 29.3032 124.262C29.1103 125.346 29.896 125.097 30.4668 125.097C43.8349 125.102 57.2029 125.101 70.571 125.097C70.8702 125.097 71.1693 125.05 71.4991 125.023C71.4823 124.647 71.4685 124.337 71.4951 123.805C71.4816 123.43 71.4681 123.056 71.4776 122.54C71.3968 122.514 71.316 122.487 70.9859 122.42C69.5684 122.42 68.1509 122.42 66.7803 122.42C66.0406 115.462 65.3167 108.652 64.5928 101.842C64.4334 101.828 64.274 101.813 64.1146 101.799C63.5299 102.937 62.5059 104.056 62.4555 105.217C62.3615 107.38 62.845 109.567 63.0679 111.747C63.3072 114.085 63.5232 116.425 63.7825 119.108C61.3028 115.813 59.0426 112.809 56.729 109.735C56.0108 110.234 55.3037 110.725 54.5295 111.263C57.3078 114.969 60.06 118.639 62.8298 122.333C59.0404 122.333 55.3533 122.333 51.564 122.333C51.564 119.174 51.564 116.097 51.5852 112.873C51.4933 112.918 51.4014 112.963 51.1116 113.022C50.5706 113.017 50.0297 113.013 49.439 112.868C49.3708 112.919 49.3025 112.969 49.1939 113.269C49.1939 116.294 49.1939 119.319 49.1939 122.416C45.642 122.416 42.2446 122.425 38.8477 122.393C38.6299 122.391 38.4152 122.066 38.369 121.822C40.9227 118.463 43.4841 115.109 46.0003 111.722C46.0932 111.597 45.7438 111.144 45.5074 110.674C45.1322 110.468 44.757 110.262 44.3319 109.915C44.2386 109.962 44.1453 110.009 43.8821 110.125C41.6704 113.039 39.4588 115.952 37.1241 119.028C37.1241 118.482 37.1241 118.173 37.2947 117.785C37.3024 117.539 37.3101 117.293 37.3582 116.816C37.3698 116.271 37.3814 115.725 37.5634 115.1ZM71.6235 50.4917C71.5971 50.5724 71.5707 50.653 71.504 50.9471C71.5174 51.2354 71.5309 51.5237 71.504 52.0358C71.3006 53.3011 72.3013 52.7558 72.8373 53.1255C72.4798 53.2395 72.1223 53.3535 71.6235 53.4447C71.5971 53.5254 71.5707 53.6061 71.5039 53.9088C71.5174 54.2837 71.5308 54.6586 71.504 55.2573C71.3006 56.5226 72.3013 55.9772 72.7548 56.3222C72.4248 56.355 72.0948 56.3878 71.6235 56.3977C71.5971 56.4784 71.5707 56.5591 71.5039 56.8618C71.5174 57.2367 71.5308 57.6116 71.504 58.2103C71.3006 59.4756 72.3013 58.9303 72.8469 59.2132C72.8469 59.2132 72.8883 59.3287 72.8479 59.5629C73.0906 61.4343 74.449 59.85 75.2502 60.581C75.2502 59.9318 75.2502 59.5574 75.2502 59.1414C75.7581 59.0766 76.1737 59.0237 76.6135 58.9676C76.5941 58.5998 76.5779 58.2931 76.6022 57.7646C76.5887 57.39 76.5752 57.0154 76.5847 56.4997C76.5039 56.4733 76.4231 56.447 76.1443 56.3803C75.8602 56.2936 75.5761 56.2068 75.518 56.1086C75.8474 56.1086 76.1769 56.1086 76.5618 56.1086C76.5618 55.6858 76.5618 55.3596 76.6022 54.8116C76.5887 54.437 76.5752 54.0624 76.5847 53.5467C76.5039 53.5203 76.4231 53.4939 76.1334 53.4273C75.8529 53.2511 75.5724 53.0748 75.518 52.8871C75.8474 52.8871 76.1769 52.8871 76.5618 52.8871C76.5618 52.4643 76.5618 52.1381 76.6021 51.5988C76.5887 51.3108 76.5752 51.0228 76.5847 50.5937C76.5039 50.5673 76.4231 50.5409 76.1262 50.4743C75.5349 50.5355 75.087 50.447 75.5391 49.6657C76.8727 49.6657 78.2063 49.6657 79.7788 49.6657C79.4144 49.1227 79.2089 48.8164 79.0138 48.2981C78.7484 47.8541 78.4778 47.413 78.2184 46.9655C76.7687 44.4644 75.3217 41.9618 73.8968 39.3185C73.816 39.2921 73.7352 39.2658 73.4048 39.199C70.0144 39.1975 66.6227 39.2494 63.2345 39.1641C62.1342 39.1364 60.9964 38.878 59.957 38.5015C57.6487 37.6654 55.4237 36.5936 53.0999 35.8096C52.0076 35.4411 51.4114 35.0024 51.5868 33.6809C51.506 33.6546 51.4252 33.6282 51.1108 33.5615C50.5588 33.5749 50.0069 33.5884 49.3136 33.5789C49.2872 33.6596 49.2608 33.7403 49.1941 34.0494C49.1941 34.4892 49.1941 34.929 49.1941 35.289C47.3877 35.9985 45.6894 36.6374 44.0135 37.3302C41.5128 38.3641 39.0893 39.4517 36.2205 39.2446C33.1501 39.023 30.0513 39.1946 27.064 39.1946C25.0925 42.7087 23.1709 46.1338 21.1501 49.7357C22.7748 49.7357 24.1436 49.7357 25.5125 49.7357C25.552 49.8428 25.5914 49.95 25.6309 50.0571C25.2608 50.2622 24.8908 50.4672 24.5005 50.6835C24.5005 51.3538 24.5005 52.0599 24.5005 52.7658C24.8715 52.8718 25.2057 52.9673 25.54 53.0628C25.5382 53.1388 25.5363 53.2147 25.5344 53.2906C25.1869 53.3714 24.8393 53.4522 24.4971 53.5318C24.4971 54.3962 24.4971 55.1936 24.4971 56.0129C24.8073 56.0842 25.0876 56.1486 25.594 56.2649C25.0686 56.3587 24.7828 56.4097 24.5008 56.4601C24.5008 57.337 24.5008 58.1321 24.5008 59.057C25.7853 58.7018 25.4667 59.7601 25.6196 60.3585C26.5094 60.3585 27.3033 60.3585 27.8213 60.3585C28.3098 59.7106 28.6803 59.2193 29.0508 58.7279C29.1205 58.7763 29.1902 58.8247 29.2599 58.873C29.2599 58.0759 29.2599 57.2787 29.2599 56.4741C28.949 56.3997 28.6732 56.3337 28.1935 56.2189C28.7024 56.1237 28.986 56.0706 29.2586 56.0196C29.2586 55.1342 29.2586 54.3377 29.2586 53.5452C28.8866 53.4373 28.5527 53.3403 28.2188 53.2434C28.2233 53.1677 28.2277 53.0921 28.2321 53.0164C28.5773 52.9365 28.9225 52.8566 29.2561 52.7793C29.2561 52.0033 29.2561 51.298 29.2561 50.7091C28.8281 50.4497 28.4801 50.2387 28.1321 50.0278C28.1825 49.9334 28.233 49.839 28.2834 49.7446C29.6882 49.7446 31.093 49.7446 32.4977 49.7446C32.5348 49.8501 32.5719 49.9556 32.609 50.0611C32.2434 50.2641 31.8777 50.4672 31.4885 50.6833C31.4885 51.3514 31.4885 52.0575 31.4885 52.767C31.8585 52.8712 32.1934 52.9655 32.5283 53.0598C32.5247 53.1368 32.521 53.2139 32.5173 53.291C32.1728 53.372 31.8283 53.4529 31.4851 53.5336C31.4851 54.3937 31.4851 55.191 31.4851 56.0132C31.7955 56.084 32.0771 56.1482 32.5895 56.265C32.0575 56.3591 31.772 56.4097 31.4886 56.4598C31.4886 57.3345 31.4886 58.1297 31.4886 59.0557C32.7664 58.7051 32.4623 59.7509 32.6054 60.3593C33.4957 60.3593 34.2897 60.3593 35.1906 60.3593C35.1906 59.9419 35.1906 59.5648 35.1906 59.1539C35.612 59.0809 35.9355 59.0249 36.2491 58.9706C36.2491 58.0783 36.2491 57.2812 36.2491 56.4727C35.9385 56.3993 35.6616 56.3338 35.1752 56.2188C35.6888 56.1239 35.9728 56.0715 36.2479 56.0207C36.2479 55.1368 36.2479 54.3402 36.2479 53.5441C35.8773 53.4381 35.5425 53.3423 35.2077 53.2465C35.2118 53.1702 35.2159 53.0939 35.2199 53.0177C35.5647 52.9369 35.9095 52.8561 36.2455 52.7773C36.2455 52.0057 36.2455 51.3004 36.2455 50.7067C35.825 50.4531 35.472 50.2403 35.1191 50.0275C35.1692 49.936 35.2194 49.8444 35.2696 49.7529C37.3897 49.7529 39.5098 49.7529 41.7733 49.7529C40.9258 57.826 40.089 65.7977 39.2375 73.9086C40.0429 73.6706 40.6933 73.4549 41.3558 73.2869C43.7334 72.6838 45.4725 71.5031 46.2871 68.976C46.9621 66.8819 48.0773 64.9293 48.9975 62.914C49.0764 62.9374 49.1554 62.9607 49.2344 62.984C49.2344 65.0766 49.2344 67.1691 49.1941 69.4728C49.1941 69.8211 49.1941 70.1695 49.1941 70.317C50.0368 70.317 50.7976 70.317 51.5639 70.317C51.5639 70.0584 51.5639 69.66 51.6044 69.0129C51.6156 66.8629 51.6269 64.7129 51.7532 62.5589C51.7532 62.5589 51.8662 62.5812 51.8796 62.7817C53.1482 65.568 54.4168 68.3544 55.7007 71.3351C56.0743 71.6335 56.404 72.0436 56.8293 72.2103C58.34 72.8024 59.8833 73.3116 61.5093 73.8858C61.5093 73.3499 61.5093 72.9165 61.5495 72.2557C61.1926 69.0861 60.8195 65.9181 60.4847 62.7461C60.2682 60.6941 60.1248 58.6344 59.9174 56.5813C59.6847 54.278 59.4169 51.9783 59.4123 49.6657C61.556 49.6755 63.6998 49.6854 65.8534 49.9116C65.4944 50.1126 65.1353 50.3136 64.6349 50.4917C64.6085 50.5724 64.5821 50.653 64.5153 50.9471C64.5287 51.2354 64.5422 51.5237 64.5154 52.0358C64.312 53.3011 65.3126 52.7558 65.8487 53.1255C65.4912 53.2395 65.1337 53.3535 64.6349 53.4447C64.6085 53.5254 64.5821 53.6061 64.5153 53.9088C64.5287 54.2837 64.5422 54.6586 64.5154 55.2573C64.312 56.5225 65.3126 55.9773 65.7661 56.3222C65.4361 56.355 65.1062 56.3878 64.6349 56.3977C64.6085 56.4784 64.5821 56.5591 64.5153 56.8618C64.5287 57.2367 64.5422 57.6116 64.5154 58.2103C64.312 59.4756 65.3126 58.9303 65.8582 59.2132C65.8582 59.2132 65.8996 59.3287 65.8592 59.5629C66.1019 61.4343 67.4604 59.85 68.2615 60.581C68.2615 59.9318 68.2615 59.5574 68.2615 59.1414C68.7668 59.077 69.1839 59.0238 69.6248 58.9676C69.6055 58.5998 69.5893 58.2931 69.6135 57.7646C69.6001 57.39 69.5866 57.0154 69.596 56.4997C69.5153 56.4733 69.4345 56.447 69.1557 56.3803C68.8716 56.2936 68.5874 56.2068 68.5293 56.1086C68.8588 56.1086 69.1882 56.1086 69.5731 56.1086C69.5731 55.6858 69.5731 55.3596 69.6135 54.8116C69.6001 54.437 69.5866 54.0624 69.596 53.5467C69.5153 53.5203 69.4345 53.4939 69.1448 53.4273C68.8643 53.2511 68.5838 53.0748 68.5293 52.8871C68.8588 52.8871 69.1882 52.8871 69.5731 52.8871C69.5731 52.4643 69.5731 52.1381 69.6135 51.5988C69.6 51.3108 69.5866 51.0228 69.596 50.5937C69.5153 50.5673 69.4345 50.5409 69.1375 50.4743C68.5462 50.5355 68.0984 50.447 68.5507 49.6657C69.9779 49.6755 71.405 49.6854 72.8421 49.9116C72.483 50.1126 72.1239 50.3136 71.6235 50.4917ZM130.89 57.6496C131.978 61.6915 133.065 65.7333 134.159 69.7986C136.024 69.7986 137.768 69.8389 139.508 69.7657C139.87 69.7505 140.398 69.3893 140.532 69.0593C141.066 67.7397 141.453 66.3619 141.934 65.0198C142.712 62.8481 143.521 60.6875 144.412 58.2639C145.759 62.0486 146.963 65.5173 148.26 68.9508C148.406 69.3356 149.064 69.7225 149.514 69.7604C150.803 69.869 152.109 69.7592 153.405 69.813C154.223 69.8469 154.633 69.6492 154.861 68.7573C155.709 65.449 156.674 62.1705 157.59 58.8796C158.483 55.676 159.369 52.4709 160.297 49.1275C158.821 49.1275 157.485 49.1275 156.149 49.1275C153.578 49.1275 153.651 49.1407 153.193 51.6812C152.698 54.4241 152.048 57.139 151.466 59.8661C151.376 59.8727 151.287 59.8793 151.197 59.8859C150.042 56.3051 148.887 52.7243 147.726 49.1275C145.77 49.1275 143.891 49.1574 142.013 49.1129C141.259 49.0951 140.982 49.3552 140.749 50.0908C139.723 53.3358 138.594 56.5481 137.473 59.8585C137.296 59.6457 137.16 59.5565 137.136 59.444C136.485 56.2988 135.866 53.1467 135.174 50.0105C135.099 49.6702 134.624 49.1796 134.318 49.1672C132.4 49.0897 130.477 49.128 128.436 49.128C129.237 51.976 130.006 54.7157 130.89 57.6496ZM59.8102 104.964C60.3239 104.362 60.8368 103.759 61.3513 103.157C65.1342 98.732 67.0099 93.5164 67.427 87.8003C67.6542 84.6863 67.4538 81.5421 67.4782 78.4117C67.4836 77.7244 67.2586 77.4751 66.5624 77.2477C61.5038 75.5958 56.4778 73.8442 51.4253 72.1734C50.8902 71.9964 50.1988 71.9807 49.6664 72.1544C44.4842 73.8452 39.3153 75.5778 34.1623 77.3554C33.8046 77.4789 33.358 78.0647 33.3684 78.4234C33.4883 82.5411 33.4615 86.682 33.9231 90.7661C34.549 96.3035 37.2477 100.974 41.0375 104.983C43.7044 107.804 46.8918 109.962 50.3853 111.601C53.8903 110.03 57.0089 107.885 59.8102 104.964ZM274.977 84.1611C274.977 88.123 274.977 92.0849 274.977 96.0219C277.129 96.0219 279.118 96.0219 281.237 96.0219C281.237 92.5466 281.237 89.1552 281.237 85.6369C281.644 86.2098 281.936 86.6373 282.244 87.0538C284.343 89.8946 286.439 92.7373 288.556 95.5649C288.732 95.8002 289.047 96.077 289.304 96.0833C291.125 96.128 292.948 96.1071 294.802 96.1071C294.802 89.1648 294.802 82.3476 294.802 75.5059C292.748 75.5059 290.759 75.5059 288.645 75.5059C288.645 78.8824 288.645 82.1908 288.645 85.7621C286.25 82.422 284.037 79.3082 281.781 76.2261C281.522 75.8724 281.029 75.4894 280.63 75.4724C278.77 75.3928 276.904 75.4371 274.977 75.4371C274.977 78.3593 274.977 81.126 274.977 84.1611ZM249.698 65.6711C250.517 66.8986 251.326 68.1325 252.164 69.3471C252.298 69.5409 252.556 69.7729 252.759 69.7757C254.96 69.8065 257.162 69.7949 259.541 69.7949C257.776 67.2697 256.173 64.978 254.563 62.6741C257.058 61.4383 258.845 58.6366 258.548 56.1479C258.069 52.137 256.017 49.1394 251.017 49.1288C247.882 49.1221 244.747 49.1249 241.611 49.1313C241.273 49.132 240.935 49.1849 240.669 49.2074C240.669 56.1354 240.669 62.9535 240.669 69.7433C242.726 69.7433 244.683 69.7433 246.748 69.7433C246.748 67.6975 246.748 65.7036 246.748 63.7512C248.558 63.113 248.779 64.7496 249.698 65.6711ZM163.779 96.1072C164.55 96.2304 164.511 95.7279 164.507 95.2056C164.494 93.4705 164.502 91.7353 164.502 90.0443C165.659 89.7129 166.319 90.0688 166.863 91.039C167.539 92.2469 168.364 93.3826 169.219 94.4758C169.704 95.0956 170.337 95.9693 170.974 96.0326C172.99 96.2334 175.039 96.1068 177.396 96.1068C175.652 93.6003 174.079 91.3381 172.507 89.0779C172.652 88.9693 172.715 88.9081 172.789 88.8685C175.911 87.2054 176.741 84.0368 176.275 81.4191C175.694 78.1573 173.953 76.0097 170.439 75.5697C166.577 75.0859 162.607 75.4594 158.652 75.4594C158.652 82.3805 158.652 89.1951 158.652 96.1074C160.315 96.1074 161.917 96.1074 163.779 96.1072ZM306.066 59.5575C306.185 59.1861 306.312 58.8172 306.421 58.4429C307.787 53.7488 304.483 49.1272 299.675 49.1275C297.48 49.1276 295.285 49.1275 293.091 49.1275C291.723 49.1275 290.355 49.1275 289.051 49.1275C289.051 56.1316 289.051 62.95 289.051 69.6973C291.049 69.6973 292.95 69.6973 294.906 69.6973C294.906 67.6352 294.906 65.6744 294.906 63.7267C295.998 63.4181 296.64 63.7521 297.215 64.7104C298.152 66.2721 299.266 67.7301 300.353 69.1972C300.562 69.4793 300.983 69.763 301.313 69.7715C303.353 69.8239 305.394 69.7978 307.763 69.7978C306.026 67.2948 304.455 65.0301 303.028 62.9727C304.053 61.815 304.985 60.7613 306.066 59.5575ZM271.082 54.4966C273.437 54.4966 275.792 54.4966 278.115 54.4966C278.115 52.6113 278.115 50.8926 278.115 49.2185C272.455 49.2185 266.882 49.2185 261.363 49.2185C261.363 56.1278 261.363 62.9458 261.363 69.7007C267.03 69.7007 272.603 69.7007 278.147 69.7007C278.147 67.8262 278.147 66.05 278.147 64.1595C274.58 64.1595 271.066 64.1595 267.513 64.1595C267.513 63.3093 267.513 62.5761 267.513 61.727C270.729 61.727 273.884 61.727 277.055 61.727C277.055 59.8915 277.055 58.1736 277.055 56.3426C273.827 56.3426 270.67 56.3426 267.529 56.3426C267.529 55.6727 267.529 55.1184 267.529 54.4966C268.676 54.4966 269.745 54.4966 271.082 54.4966ZM200.585 69.2609C200.918 69.1693 201.255 69.0903 201.583 68.9844C205.759 67.6369 209.043 64.0332 208.915 59.0044C208.789 54.0484 205.347 50.524 201.45 49.7808C197.411 49.0105 193.2 49.1437 189.031 48.8796C189.031 56.0836 189.031 62.8974 189.031 70.0297C192.863 69.7698 196.607 69.5158 200.585 69.2609ZM271.73 90.9442C271.263 90.8756 270.797 90.7503 270.33 90.7475C267.342 90.7294 264.354 90.7383 261.334 90.7383C261.334 89.7915 261.334 88.9683 261.334 88.0295C264.553 88.0295 267.709 88.0295 270.869 88.0295C270.869 86.1934 270.869 84.4755 270.869 82.6447C267.638 82.6447 264.48 82.6447 261.351 82.6447C261.351 81.9748 261.351 81.4203 261.351 80.7501C264.856 80.7501 268.28 80.7501 271.66 80.7501C271.66 78.9116 271.66 77.1925 271.66 75.5319C266.084 75.5319 260.601 75.5319 255.185 75.5319C255.185 82.4461 255.185 89.2644 255.185 96.0515C260.736 96.0515 266.187 96.0515 271.749 96.0515C271.749 94.3997 271.749 92.8012 271.73 90.9442ZM333.691 90.7383C330.799 90.7383 327.907 90.7383 325.065 90.7383C325.065 89.7395 325.065 88.9155 325.065 87.9786C328.401 87.9786 331.646 87.9786 334.817 87.9786C334.817 86.1402 334.817 84.4206 334.817 82.6389C331.502 82.6389 328.289 82.6389 325.031 82.6389C325.031 82.0162 325.031 81.4621 325.031 80.7921C328.603 80.7921 332.117 80.7921 335.655 80.7921C335.655 78.9571 335.655 77.2391 335.655 75.5095C330.102 75.5095 324.62 75.5095 319.136 75.5095C319.136 82.4008 319.136 89.2186 319.136 96.0269C324.696 96.0269 330.178 96.0269 335.639 96.0269C335.639 94.2268 335.639 92.5082 335.639 90.7383C335.021 90.7383 334.488 90.7383 333.691 90.7383ZM186.409 96.1074C189.57 96.1074 192.731 96.1074 195.865 96.1074C195.865 94.2245 195.865 92.5057 195.865 90.6756C192.265 90.6756 188.751 90.6756 185.295 90.6756C185.295 89.7347 185.295 88.9107 185.295 87.9738C188.633 87.9738 191.878 87.9738 195.089 87.9738C195.089 86.169 195.089 84.4823 195.089 82.682C191.789 82.682 188.543 82.682 185.261 82.682C185.261 82.0117 185.261 81.4576 185.261 80.7882C188.834 80.7882 192.348 80.7882 195.88 80.7882C195.88 78.9532 195.88 77.2353 195.88 75.5111C190.326 75.5111 184.843 75.5111 179.364 75.5111C179.364 82.404 179.364 89.2216 179.364 96.1074C181.675 96.1074 183.907 96.1074 186.409 96.1074ZM358.286 49.3684C356.717 49.2881 355.125 49.3471 353.584 49.0931C351.546 48.7571 350.491 49.8385 349.401 51.2829C348.068 53.0495 346.524 54.6572 344.832 56.6099C344.832 53.8832 344.832 51.5422 344.832 49.2062C342.725 49.2062 340.736 49.2062 338.765 49.2062C338.765 56.1041 338.765 62.9229 338.765 69.71C340.839 69.71 342.829 69.71 344.863 69.71C344.863 68.4174 344.99 67.1963 344.834 66.0124C344.603 64.2639 345.368 63.1509 346.771 62.278C348.358 64.5567 349.935 66.8313 351.528 69.0953C351.713 69.3586 351.977 69.7593 352.213 69.7645C354.502 69.8151 356.794 69.7949 359.285 69.7949C356.404 65.5863 353.691 61.6233 351.006 57.7019C352.24 56.2563 353.36 54.895 354.533 53.5807C355.745 52.2239 357.007 50.9128 358.286 49.3684ZM129.93 93.9307C132.62 97.0832 138.284 97.0448 141.865 94.6953C142.229 95.1062 142.658 95.5096 142.987 95.9833C143.455 96.6594 144.044 96.6423 144.673 96.3571C145.921 95.7914 147.151 95.1868 148.458 94.565C147.413 93.3757 146.429 92.2553 145.511 91.2106C146.337 89.8717 147.169 88.5984 147.894 87.2668C148.005 87.0625 147.715 86.4083 147.451 86.2722C146.299 85.6792 145.088 85.2008 143.917 84.6886C143.406 85.6268 142.863 86.6248 142.216 87.8144C141.522 86.92 141.019 86.2725 140.481 85.5793C140.84 85.3851 141.104 85.2498 141.361 85.1023C144.742 83.1614 145.034 81.7874 144.387 79.1188C143.497 75.4499 139.497 74.5753 136.279 75.3787C135.109 75.6707 133.907 76.4928 133.089 77.4034C131.15 79.5609 131.446 82.0004 132.796 84.3283C131.842 85.1127 130.821 85.7327 130.088 86.5967C128.161 88.8689 128.495 91.3146 129.93 93.9307ZM328.173 62.3881C328.457 62.4902 328.778 62.5391 329.015 62.7065C329.398 62.9775 329.727 63.3263 330.078 63.6423C329.684 64.0662 329.322 64.5282 328.88 64.8945C328.714 65.0325 328.363 64.9569 328.096 64.9652C325.686 65.0402 323.609 64.111 321.627 62.8586C321.379 62.7016 320.832 62.5772 320.728 62.6982C319.689 63.9119 318.713 65.1802 317.664 66.5033C318.002 66.7985 318.251 67.064 318.544 67.2651C321.691 69.4236 325.222 70.4482 328.973 70.0092C332.34 69.6151 335.241 68.7266 336.183 64.09C336.5 62.529 335.9 59.6476 334.083 58.812C332.488 58.0788 330.816 57.5055 329.157 56.924C327.978 56.511 326.744 56.2508 325.576 55.8111C325.291 55.7036 324.999 55.1479 325.023 54.8206C325.045 54.5163 325.441 54.0617 325.746 53.9907C326.447 53.8279 327.248 53.6624 327.908 53.8494C329.569 54.3196 331.175 54.9845 332.854 55.5901C333.776 54.2956 334.778 52.8875 335.794 51.4609C332.416 49.1339 328.839 48.1217 324.831 48.8515C322.352 49.3029 320.343 50.3381 319.28 52.7841C318.322 54.9868 318.39 58.7025 321.007 59.9736C323.189 61.033 325.639 61.5404 328.173 62.3881ZM206.009 82.4334C205.215 82.4003 204.464 81.9521 204.64 81.2442C204.768 80.7294 205.644 80.3499 206.249 80.0265C206.524 79.8793 206.981 79.9242 207.302 80.0352C209.046 80.6369 210.772 81.2865 212.582 81.9479C213.303 80.9388 214.2 79.7629 214.986 78.5177C215.155 78.2506 215.077 77.5145 214.858 77.3626C211.123 74.779 205.254 73.8605 201.031 76.5212C198.268 78.2624 197.444 83.4105 199.89 85.5902C201.01 86.5884 202.539 87.2158 203.98 87.7444C205.476 88.2928 207.111 88.4505 208.641 88.9237C209.141 89.0786 209.501 89.6865 209.925 90.0873C209.444 90.4821 208.975 90.8937 208.473 91.2591C208.355 91.3447 208.123 91.2681 207.944 91.276C205.525 91.383 203.423 90.5459 201.471 89.1825C201.22 89.007 200.567 89.0026 200.39 89.1908C199.49 90.1466 198.642 91.1614 197.88 92.2295C197.706 92.4723 197.795 93.2256 198.015 93.3772C202.375 96.3734 207.109 97.3192 212.163 95.5033C214.269 94.7465 215.551 93.0233 215.816 90.7848C216.134 88.106 215.753 85.6096 212.749 84.5624C210.591 83.8098 208.373 83.2272 206.009 82.4334ZM224.303 56.9128C222.036 56.9128 219.769 56.9128 217.544 56.9128C217.544 56.0091 217.544 55.2745 217.544 54.4284C221.145 54.4284 224.659 54.4284 228.108 54.4284C228.108 52.5891 228.108 50.8695 228.108 49.1833C222.558 49.1833 217.106 49.1833 211.602 49.1833C211.602 56.0578 211.602 62.8764 211.602 69.733C213.563 69.733 215.462 69.733 217.479 69.733C217.479 67.3232 217.479 64.9769 217.479 62.5164C220.75 62.5164 223.906 62.5164 227.051 62.5164C227.051 60.59 227.051 58.7818 227.051 56.9128C226.17 56.9128 225.369 56.9128 224.303 56.9128ZM312.542 88.8698C310.358 91.3002 308.064 91.1166 306.165 90.0887C304.365 89.1142 303.291 86.6955 303.755 84.5427C304.217 82.3985 306.253 80.6499 308.32 80.5263C310.211 80.4133 311.541 81.3985 312.717 82.6406C314.222 81.3365 315.683 80.0709 317.144 78.8056C312.578 73.4853 304.634 73.8342 300.189 78.6264C295.904 83.2455 296.428 89.9154 301.531 93.9582C306.481 97.8801 313.641 96.9495 317.208 92.4865C315.72 91.2787 314.231 90.0699 312.542 88.8698ZM27.1628 101.566C24.5652 96.1703 23.4772 90.5907 24.7043 84.6074C26.2954 76.8494 30.5331 71.0354 37.2081 66.8943C37.7174 66.5783 38.5223 66.266 38.6109 65.8336C38.8792 64.5246 38.8626 63.1573 38.9608 61.7595C26.7334 66.552 17.9441 79.8414 20.9519 95.9381C22.2014 102.625 30.0228 113.972 33.4764 113.949C33.6074 113.114 33.8178 112.293 33.84 111.467C33.8575 110.818 33.879 109.9 33.4924 109.553C30.973 107.287 28.9397 104.665 27.1628 101.566ZM71.7852 104.593C70.5889 105.951 69.4277 107.342 68.1869 108.659C66.855 110.071 66.617 112.269 67.7885 114.207C77.799 106.466 82.039 96.392 80.0571 83.9375C78.3773 73.3816 69.9481 64.4303 61.9258 61.8261C61.9828 62.8242 61.974 63.8319 62.1178 64.8174C62.2314 65.5958 62.4989 66.2181 63.354 66.7208C65.9645 68.2557 68.3186 70.1078 70.3277 72.459C73.8845 76.6213 76.0325 81.3921 76.5506 86.7538C77.1681 93.1443 75.7505 99.1432 71.7852 104.593ZM180.502 64.1611C179.579 64.1611 178.655 64.1611 177.629 64.1611C177.629 59.0671 177.629 54.1308 177.629 49.2081C175.618 49.2081 173.719 49.2081 171.837 49.2081C171.837 56.1021 171.837 62.9152 171.837 69.7231C176.945 69.7231 181.977 69.7231 187.003 69.7231C187.003 67.8401 187.003 66.0335 187.003 64.1611C184.873 64.1611 182.821 64.1611 180.502 64.1611ZM228.207 83.3557C228.207 87.5833 228.207 91.8108 228.207 96.032C233.482 96.032 238.603 96.032 243.718 96.032C243.718 94.2385 243.718 92.5217 243.718 90.693C240.488 90.693 237.335 90.693 234.075 90.693C234.075 85.5546 234.075 80.5289 234.075 75.5169C232.065 75.5169 230.166 75.5169 228.207 75.5169C228.207 78.0938 228.207 80.5905 228.207 83.3557ZM106.443 119.866C106.443 87.0983 106.443 54.3308 106.443 21.4833C105.901 21.5179 105.563 21.5396 105.199 21.5629C105.199 61.5626 105.199 101.476 105.199 141.463C105.641 141.435 105.979 141.413 106.443 141.384C106.443 134.248 106.443 127.191 106.443 119.866ZM310.636 69.7987C312.36 69.7987 314.084 69.7987 315.739 69.7987C315.739 62.7914 315.739 55.9766 315.739 49.2252C313.654 49.2252 311.665 49.2252 309.651 49.2252C309.651 55.8479 309.654 62.373 309.646 68.8981C309.646 69.4218 309.606 69.9216 310.636 69.7987ZM224.712 90.604C224.712 85.5714 224.712 80.5389 224.712 75.5157C222.57 75.5157 220.582 75.5157 218.607 75.5157C218.607 82.409 218.607 89.2227 218.607 96.028C220.672 96.028 222.66 96.028 224.712 96.028C224.712 94.2569 224.712 92.5646 224.712 90.604ZM233.19 49.1275C232.446 49.1275 231.701 49.1275 230.97 49.1275C230.97 56.0977 230.97 62.9116 230.97 69.7201C233.035 69.7201 235.023 69.7201 237.001 69.7201C237.001 62.8274 237.001 56.0135 237.001 49.1275C235.769 49.1275 234.612 49.1275 233.19 49.1275ZM249.56 96.1074C250.214 96.1074 250.868 96.1074 251.518 96.1074C251.518 89.1408 251.518 82.3268 251.518 75.5132C249.455 75.5132 247.467 75.5132 245.484 75.5132C245.484 82.4045 245.484 89.2186 245.484 96.1074C246.804 96.1074 248.05 96.1074 249.56 96.1074ZM167.997 60.8054C167.997 56.9351 167.997 53.0648 167.997 49.2083C165.941 49.2083 164.043 49.2083 162.161 49.2083C162.161 56.103 162.161 62.9166 162.161 69.7179C164.139 69.7179 166.037 69.7179 167.997 69.7179C167.997 66.783 167.997 63.9284 167.997 60.8054ZM141.678 106.475C142.827 108.536 142.741 110.63 141.37 111.789C141.068 112.044 140.402 112.209 140.109 112.046C139.789 111.869 139.499 111.228 139.561 110.848C139.818 109.274 140.212 107.722 140.611 105.909C139.789 106.079 139.144 106.212 138.499 106.345C137.949 106.307 137.291 105.864 136.6 105.804C134.256 105.6 132.85 106.837 132.236 109.406C131.91 110.771 132.082 111.96 133.266 112.85C134.503 113.779 135.643 113.825 137.018 112.938C137.534 112.605 137.811 112.696 138.355 112.983C139.009 113.329 139.954 113.496 140.659 113.309C143.087 112.665 144.162 109.814 143.122 107.11C142.207 104.727 140.403 103.286 137.971 102.864C135.35 102.409 132.887 103.152 131.14 105.193C128.534 108.237 128.378 112.601 131.946 115.603C133.703 117.08 138.963 117.304 140.254 115.251C139.811 115.172 139.331 115.137 138.968 115.327C135.749 117.016 131.927 115.101 130.774 112.559C129.655 110.09 130.426 106.988 132.903 104.977C135.55 102.828 139.823 103.474 141.678 106.475ZM166.525 107.125C165.756 106.112 164.988 105.099 164.219 104.087C163.438 103.061 162.665 102.016 161.087 102.698C161.087 106.731 161.087 110.776 161.087 114.806C161.723 114.806 162.273 114.806 162.926 114.806C162.926 111.886 162.926 109.058 162.926 105.992C164.835 108.533 166.589 110.872 168.348 113.208C169.174 114.305 169.955 115.513 171.678 114.75C171.678 110.716 171.678 106.672 171.678 102.647C170.952 102.647 170.309 102.647 169.576 102.647C169.576 105.487 169.576 108.232 169.576 111.306C168.47 109.794 167.552 108.541 166.525 107.125ZM187.35 105.111C187.35 104.278 187.35 103.446 187.35 102.651C186.533 102.651 185.891 102.651 185.161 102.651C185.161 105.493 185.161 108.235 185.161 111.229C183.186 108.637 181.315 106.286 179.571 103.845C178.792 102.754 177.982 102.208 176.694 102.683C176.694 106.777 176.694 110.819 176.694 114.838C177.315 114.838 177.838 114.838 178.509 114.838C178.509 111.926 178.509 109.072 178.509 106.057C180.569 108.73 182.591 111.158 184.373 113.751C185.202 114.956 186.08 115.049 187.35 114.773C187.35 111.618 187.35 108.497 187.35 105.111ZM150.952 110.604C151.578 110.604 152.203 110.607 152.828 110.604C154.747 110.594 156.74 109.227 156.972 107.762C157.373 105.222 156.469 103.352 154.11 102.882C151.934 102.449 149.65 102.566 147.372 102.438C147.372 106.731 147.372 110.766 147.372 114.816C148.087 114.816 148.728 114.816 149.453 114.816C149.453 113.41 149.453 112.086 149.453 110.678C149.921 110.65 150.307 110.627 150.952 110.604ZM191.85 102.589C191.784 103.237 191.663 103.885 191.66 104.534C191.64 107.957 191.651 111.38 191.651 114.817C194.596 114.817 197.388 114.817 200.156 114.817C200.156 114.18 200.156 113.629 200.156 112.947C197.986 112.947 195.91 112.947 193.757 112.947C193.757 109.429 193.757 106.047 193.757 102.556C193.15 102.556 192.625 102.556 191.85 102.589Z" fill="white"/>
<path d="M49.4551 33.6018C50.0071 33.5884 50.5591 33.575 51.2526 33.629C51.4381 33.7555 51.4948 33.7973 51.5642 33.8221C51.4117 35.0024 52.0078 35.4411 53.1001 35.8096C55.4239 36.5936 57.649 37.6654 59.9572 38.5015C60.9967 38.878 62.1344 39.1364 63.2348 39.1641C66.623 39.2494 70.0147 39.1976 73.5545 39.2666C73.7481 39.3931 73.8047 39.4349 73.8741 39.4597C75.322 41.9618 76.769 44.4645 78.2186 46.9656C78.478 47.4131 78.7486 47.8541 78.8684 48.4237C77.7441 48.5636 76.765 48.5648 75.7868 48.5962C74.9278 48.6237 74.737 48.9882 75.2922 49.6771C75.0873 50.4471 75.5351 50.5356 76.2592 50.5418C76.436 50.6683 76.4927 50.7101 76.562 50.7348C76.5755 51.0228 76.5889 51.3108 76.4723 51.7055C74.8964 51.8504 74.8964 51.8504 75.2922 52.8986C75.5727 53.0749 75.8532 53.2511 76.2628 53.4948C76.436 53.6213 76.4927 53.6631 76.562 53.6878C76.5755 54.0624 76.5889 54.437 76.4723 54.9226C74.8964 55.0719 74.8964 55.0719 75.2922 56.1201C75.5763 56.2069 75.8604 56.2936 76.2683 56.4479C76.436 56.5743 76.4927 56.6162 76.562 56.6409C76.5755 57.0155 76.5889 57.39 76.4691 57.8756C75.3145 57.7744 74.8785 58.3047 74.8404 59.3288C74.1324 59.3288 73.5105 59.3288 72.8885 59.3288C72.8885 59.3288 72.8471 59.2132 72.8425 59.0431C72.9525 57.7833 72.1605 58.0129 71.5445 57.9865C71.5311 57.6116 71.5176 57.2367 71.5718 56.7262C71.6984 56.5465 71.7403 56.4899 71.7651 56.4206C72.095 56.3878 72.425 56.355 72.7965 56.1211C72.9525 54.8303 72.1605 55.0599 71.5445 55.0335C71.5311 54.6586 71.5176 54.2837 71.5718 53.7731C71.6984 53.5935 71.7403 53.5369 71.7651 53.4676C72.1226 53.3536 72.4801 53.2396 72.8378 52.912C72.9525 51.6088 72.1605 51.8384 71.5445 51.812C71.5311 51.5237 71.5177 51.2354 71.5718 50.8158C71.6984 50.6405 71.7403 50.5838 71.7651 50.5146C72.1242 50.3136 72.4833 50.1126 72.84 49.6882C72.6029 49.175 72.3862 48.6554 72.1301 48.6352C70.9808 48.5447 69.8179 48.5516 68.6644 48.611C67.8141 48.6549 67.8632 49.1307 68.3036 49.6771C68.0986 50.4471 68.5464 50.5356 69.2706 50.5418C69.4473 50.6683 69.504 50.7101 69.5734 50.7348C69.5868 51.0228 69.6003 51.3108 69.4836 51.7055C67.9077 51.8504 67.9077 51.8504 68.3036 52.8986C68.584 53.0749 68.8645 53.2511 69.2742 53.4948C69.4473 53.6213 69.504 53.6631 69.5734 53.6878C69.5868 54.0624 69.6003 54.437 69.4836 54.9226C67.9077 55.0719 67.9077 55.0719 68.3036 56.1201C68.5877 56.2068 68.8718 56.2936 69.2796 56.4479C69.4473 56.5743 69.504 56.6162 69.5734 56.6409C69.5868 57.0155 69.6003 57.39 69.4804 57.8756C68.3259 57.7744 67.8898 58.3047 67.8518 59.3288C67.1437 59.3288 66.5218 59.3288 65.8999 59.3288C65.8999 59.3288 65.8584 59.2132 65.8539 59.0431C65.9638 57.7833 65.1719 58.013 64.5559 57.9865C64.5424 57.6116 64.529 57.2367 64.5831 56.7262C64.7098 56.5465 64.7517 56.4899 64.7764 56.4206C65.1064 56.3878 65.4364 56.355 65.8079 56.1211C65.9638 54.8303 65.1719 55.0599 64.5559 55.0335C64.5424 54.6586 64.529 54.2837 64.5831 53.7731C64.7098 53.5935 64.7517 53.5369 64.7764 53.4676C65.1339 53.3536 65.4914 53.2396 65.8491 52.912C65.9638 51.6088 65.1719 51.8385 64.5559 51.812C64.5424 51.5237 64.529 51.2354 64.5831 50.8158C64.7098 50.6405 64.7517 50.5838 64.7764 50.5146C65.1355 50.3136 65.4946 50.1126 65.8514 49.6881C65.5689 49.1738 65.2993 48.6443 65.0068 48.6314C63.2278 48.553 61.4434 48.5778 59.6611 48.5983C58.8034 48.6082 58.6078 48.9858 59.1645 49.6771C59.4171 51.9784 59.685 54.2781 59.9176 56.5813C60.125 58.6344 60.2684 60.6941 60.485 62.7462C60.8198 65.9181 61.1929 69.0861 61.4207 72.3695C60.6519 72.3446 60.009 72.2191 59.3731 72.0646C58.1419 71.7653 56.9146 71.4496 55.6857 71.1408C54.4171 68.3544 53.1484 65.5681 51.875 62.5882C51.7441 62.2348 51.618 62.0748 51.492 61.9149C51.5408 62.1309 51.5896 62.347 51.6384 62.563C51.6271 64.713 51.6159 66.863 51.4679 69.1374C50.6324 69.2617 49.9335 69.2617 49.2346 69.2617C49.2346 67.1691 49.2346 65.0766 49.2346 62.9841C49.1556 62.9607 49.0767 62.9374 48.9977 62.9141C48.0775 64.9294 46.9624 66.8819 46.2874 68.976C45.4728 71.5031 43.7337 72.6838 41.3561 73.2869C40.6935 73.455 40.0431 73.6707 39.2378 73.9087C40.0892 65.7977 40.9261 57.826 41.7736 49.7529C39.5101 49.7529 37.3899 49.7529 35.2698 49.7529C35.2196 49.8444 35.1695 49.936 35.1193 50.0275C35.4723 50.2403 35.8252 50.4531 36.2458 50.7067C36.2458 51.3004 36.2458 52.0057 36.2458 52.7774C35.9097 52.8561 35.565 52.9369 35.2202 53.0177C35.2161 53.094 35.2121 53.1703 35.208 53.2466C35.5428 53.3423 35.8776 53.4381 36.2481 53.5441C36.2481 54.3402 36.2481 55.1368 36.2481 56.0207C35.9731 56.0715 35.689 56.124 35.1754 56.2188C35.6618 56.3338 35.9388 56.3993 36.2494 56.4727C36.2494 57.2812 36.2494 58.0783 36.2494 58.9706C35.9357 59.0249 35.6122 59.0809 35.1909 59.1539C35.1909 59.5649 35.1909 59.942 35.1909 60.3593C34.2899 60.3593 33.496 60.3593 32.6056 60.3593C32.4625 59.751 32.7667 58.7051 31.4889 59.0557C31.4889 58.1297 31.4889 57.3345 31.4889 56.4598C31.7723 56.4097 32.0578 56.3592 32.5897 56.2651C32.0774 56.1482 31.7957 56.084 31.4854 56.0133C31.4854 55.1911 31.4854 54.3938 31.4854 53.5336C31.8285 53.453 32.173 53.372 32.5175 53.291C32.5212 53.2139 32.5249 53.1369 32.5286 53.0598C32.1937 52.9655 31.8587 52.8712 31.4887 52.7671C31.4887 52.0575 31.4887 51.3514 31.4887 50.6834C31.878 50.4672 32.2436 50.2642 32.6093 50.0611C32.5722 49.9556 32.5351 49.8502 32.498 49.7447C31.0932 49.7447 29.6884 49.7447 28.2836 49.7447C28.2332 49.839 28.1828 49.9334 28.1323 50.0278C28.4803 50.2388 28.8284 50.4497 29.2564 50.7091C29.2564 51.298 29.2564 52.0033 29.2564 52.7794C28.9227 52.8566 28.5775 52.9365 28.2323 53.0164C28.2279 53.0921 28.2235 53.1678 28.2191 53.2435C28.553 53.3404 28.8869 53.4373 29.2588 53.5452C29.2588 54.3377 29.2588 55.1343 29.2588 56.0196C28.9863 56.0706 28.7026 56.1237 28.1937 56.219C28.6734 56.3337 28.9493 56.3997 29.2602 56.4741C29.2602 57.2787 29.2602 58.0759 29.2602 58.8731C29.1904 58.8247 29.1207 58.7763 29.051 58.7279C28.6805 59.2193 28.31 59.7107 27.8215 60.3585C27.3036 60.3585 26.5096 60.3585 25.6199 60.3585C25.4669 59.7601 25.7855 58.7018 24.501 59.057C24.501 58.1322 24.501 57.337 24.501 56.4602C24.7831 56.4098 25.0689 56.3587 25.5942 56.2649C25.0879 56.1486 24.8075 56.0842 24.4973 56.013C24.4973 55.1936 24.4973 54.3963 24.4973 53.5318C24.8396 53.4523 25.1871 53.3715 25.5347 53.2907C25.5365 53.2147 25.5384 53.1388 25.5403 53.0628C25.206 52.9673 24.8717 52.8718 24.5007 52.7659C24.5007 52.0599 24.5007 51.3538 24.5007 50.6835C24.891 50.4672 25.2611 50.2622 25.6312 50.0571C25.5917 49.95 25.5522 49.8429 25.5128 49.7357C24.1439 49.7357 22.775 49.7357 21.1504 49.7357C23.1712 46.1338 25.0928 42.7087 27.0643 39.1947C30.0515 39.1947 33.1504 39.023 36.2207 39.2447C39.0895 39.4518 41.5131 38.3641 44.0137 37.3303C45.6896 36.6374 47.3879 35.9985 49.1944 35.2891C49.1944 34.9291 49.1944 34.4892 49.2619 33.9105C49.3885 33.7277 49.4304 33.6711 49.4551 33.6018ZM51.6119 49.922C51.6119 50.9566 51.6119 51.9912 51.6119 53.3249C52.7259 51.9508 53.6401 50.823 54.5598 49.4653C54.3262 49.1755 54.1008 48.6476 53.8576 48.6393C53.0521 48.6118 52.2401 48.7717 51.4307 48.8596C51.4999 49.1321 51.5691 49.4046 51.6119 49.922ZM51.6119 41.8682C51.6119 42.906 51.6119 43.9438 51.6119 45.2853C52.9198 43.9159 54.0059 42.7788 55.0974 41.4112C54.8189 41.1204 54.5369 40.58 54.2624 40.5838C53.3008 40.597 52.3418 40.7977 51.3818 40.9272C51.4673 41.1593 51.5528 41.3914 51.6119 41.8682ZM53.6045 55.2611C54.6988 55.2611 55.7932 55.2611 57.0352 55.2611C56.9199 53.974 56.8124 52.7743 56.7077 51.3745C56.4634 51.233 56.0568 50.9217 55.9997 50.9762C55.3665 51.5798 54.634 52.1598 54.2408 52.9096C53.9065 53.5472 52.8658 54.0519 53.6045 55.2611ZM68.927 46.9397C70.9353 46.9397 72.9437 46.9397 75.0551 46.9397C74.258 45.4247 73.5453 44.0702 72.8356 42.5162C72.5447 42.3803 72.0598 42.0632 71.9918 42.1357C70.8769 43.3256 69.7946 44.5484 68.7642 45.8119C68.6257 45.9818 68.8084 46.4129 68.927 46.9397ZM69.8811 41.411C69.6005 41.1202 69.3272 40.5857 69.0382 40.5771C66.721 40.5081 64.4008 40.5265 62.0817 40.5446C61.2245 40.5514 61.0259 40.9304 61.5587 41.8111C62.8769 43.3061 64.1952 44.801 65.6054 46.4003C67.1251 44.7069 68.5004 43.1743 69.8811 41.411ZM53.8746 46.9398C56.6553 46.9398 59.436 46.9398 62.4272 46.9398C61.0632 45.3443 59.8248 43.8956 58.5922 42.2373C58.6076 41.2409 58.2097 41.0924 57.5198 41.7609C56.3414 42.9025 55.1507 44.0379 54.065 45.2641C53.7831 45.5825 53.8715 46.2279 53.8746 46.9398ZM57.2478 57.5183C57.0621 57.2308 56.8881 56.7037 56.6889 56.6941C55.2234 56.6232 53.7527 56.6558 52.2133 56.6558C52.3119 57.1608 52.3693 57.4549 52.486 57.9299C54.4374 62.2338 56.3888 66.5378 58.3563 71.0223C58.5093 71.1334 58.6624 71.2445 58.8155 71.3557C58.881 71.2623 58.9465 71.169 59.012 71.0756C58.8637 71.0041 58.7153 70.9325 58.5946 70.6196C58.3253 67.4377 58.0782 64.2538 57.7748 61.0752C57.6683 59.9597 57.4238 58.8573 57.2478 57.5183ZM42.2012 70.1396C42.2012 70.4267 42.2012 70.7138 42.2012 71.232C43.345 68.8254 44.4018 66.6554 45.411 64.4636C46.42 62.2723 47.3815 60.0591 48.3994 57.7757C46.7678 57.7757 45.2225 57.7757 43.5863 57.7757C43.3922 59.4793 43.2001 61.1666 43.0075 62.8538C42.739 65.2055 42.4701 67.5571 42.2012 70.1396ZM35.4668 46.056C36.7965 44.6247 38.1262 43.1935 39.5253 41.6874C36.5729 41.6874 33.8026 41.6874 31.0697 41.6874C32.4937 43.1915 33.8993 44.6763 35.4668 46.056ZM43.4064 46.9799C44.5822 46.9799 45.758 46.9799 46.6689 46.9799C45.2119 45.5372 43.7126 44.0527 42.2685 42.6227C41.1032 43.9342 39.8081 45.3917 38.3969 46.9799C40.1177 46.9799 41.6287 46.9799 43.4064 46.9799ZM29.0233 43.613C28.8087 43.3105 28.594 43.008 28.2605 42.5381C27.4026 44.0722 26.619 45.4735 25.795 46.9469C27.9357 46.9469 29.8807 46.9469 32.2245 46.9469C31.0654 45.7406 30.1102 44.7463 29.0233 43.613ZM47.2525 54.8475C46.2556 53.7663 45.2586 52.6851 44.1835 51.5191C44.052 52.8681 43.9372 54.0457 43.803 55.4214C45.0845 55.2897 46.1877 55.1763 47.2525 54.8475ZM48.677 44.7318C48.8477 44.6891 49.1659 44.6509 49.1673 44.6032C49.1964 43.6389 49.1891 42.6736 49.1891 41.6699C47.9904 41.6699 46.9116 41.6699 45.6088 41.6699C46.6809 42.7337 47.6125 43.6582 48.677 44.7318ZM54.017 38.3704C53.2536 37.8777 52.4902 37.385 51.4238 36.6968C51.3822 37.5698 51.2203 38.0571 51.3781 38.3959C51.5736 38.8154 52.0083 39.3649 52.386 39.4033C52.9822 39.4638 54.0437 39.95 54.017 38.3704ZM46.8489 49.6645C46.712 49.7721 46.575 49.8797 46.4381 49.9872C47.2893 50.942 48.1404 51.8968 49.1189 52.9944C49.1189 51.726 49.1189 50.7311 49.1189 49.6645C48.3912 49.6645 47.7323 49.6645 46.8489 49.6645Z" fill="#004D40"/>
<path d="M130.832 57.5525C130.006 54.7157 129.236 51.976 128.436 49.128C130.476 49.128 132.399 49.0897 134.318 49.1672C134.623 49.1796 135.098 49.6702 135.173 50.0105C135.865 53.1467 136.484 56.2988 137.136 59.4441C137.159 59.5565 137.295 59.6457 137.472 59.8585C138.593 56.5481 139.722 53.3358 140.748 50.0908C140.981 49.3552 141.259 49.0951 142.013 49.1129C143.89 49.1574 145.769 49.1276 147.725 49.1276C148.886 52.7243 150.041 56.3051 151.197 59.8859C151.286 59.8793 151.376 59.8727 151.465 59.8661C152.048 57.139 152.698 54.4241 153.192 51.6812C153.651 49.1407 153.577 49.1275 156.149 49.1275C157.484 49.1275 158.82 49.1275 160.296 49.1275C159.369 52.4709 158.482 55.676 157.59 58.8796C156.673 62.1705 155.708 65.449 154.861 68.7573C154.632 69.6492 154.223 69.8469 153.405 69.813C152.108 69.7592 150.802 69.869 149.513 69.7604C149.063 69.7225 148.405 69.3356 148.259 68.9508C146.962 65.5173 145.759 62.0486 144.411 58.2639C143.52 60.6875 142.711 62.8481 141.933 65.0198C141.452 66.3619 141.065 67.7397 140.531 69.0593C140.398 69.3893 139.869 69.7505 139.508 69.7657C137.768 69.8389 136.023 69.7986 134.158 69.7986C133.065 65.7333 131.977 61.6915 130.832 57.5525Z" fill="#004D40"/>
<path d="M59.7409 105.031C57.0079 107.885 53.8893 110.03 50.3843 111.601C46.8907 109.962 43.7033 107.804 41.0365 104.983C37.2467 100.974 34.5479 96.3035 33.9221 90.766C33.4605 86.6819 33.4872 82.541 33.3674 78.4233C33.3569 78.0646 33.8035 77.4788 34.1613 77.3554C39.3142 75.5777 44.4831 73.8452 49.6654 72.1543C50.1978 71.9806 50.8892 71.9964 51.4242 72.1733C56.4768 73.8442 61.5027 75.5957 66.5613 77.2477C67.2575 77.475 67.4826 77.7244 67.4772 78.4117C67.4528 81.542 67.6531 84.6862 67.4259 87.8002C67.0088 93.5163 65.1332 98.7319 61.3502 103.157C60.8357 103.758 60.3228 104.362 59.7409 105.031ZM39.5237 97.2801C41.9424 101.585 45.2609 104.977 49.5612 107.459C50.339 107.908 50.7915 107.904 51.4066 107.447C52.8071 106.408 54.225 105.39 55.6045 104.323C58.9476 101.737 61.0494 98.2852 62.6624 94.4371C64.6478 89.7003 64.1963 84.7579 64.2282 79.8408C59.9801 78.4466 55.7945 77.0578 51.5951 75.7118C50.991 75.5181 50.2448 75.3018 49.6929 75.4841C45.5852 76.8412 41.5242 78.34 37.4115 79.6811C36.6547 79.9279 36.5197 80.248 36.5546 80.8806C36.7352 84.1463 36.6649 87.4519 37.1792 90.6642C37.5321 92.8687 38.6966 94.9435 39.5237 97.2801Z" fill="#004D40"/>
<path d="M274.977 84.0269C274.977 81.126 274.977 78.3593 274.977 75.4371C276.904 75.4371 278.769 75.3928 280.629 75.4724C281.029 75.4895 281.522 75.8724 281.781 76.2261C284.037 79.3082 286.25 82.4221 288.644 85.7621C288.644 82.1908 288.644 78.8824 288.644 75.5059C290.759 75.5059 292.747 75.5059 294.802 75.5059C294.802 82.3476 294.802 89.1648 294.802 96.1071C292.948 96.1071 291.125 96.128 289.303 96.0833C289.047 96.077 288.732 95.8002 288.555 95.5649C286.439 92.7373 284.343 89.8946 282.244 87.0538C281.936 86.6373 281.643 86.2098 281.237 85.6369C281.237 89.1552 281.237 92.5466 281.237 96.022C279.118 96.022 277.129 96.022 274.977 96.022C274.977 92.0849 274.977 88.123 274.977 84.0269Z" fill="#004D40"/>
<path d="M249.64 65.5901C248.78 64.7497 248.558 63.1131 246.749 63.7512C246.749 65.7036 246.749 67.6975 246.749 69.7434C244.684 69.7434 242.726 69.7434 240.67 69.7434C240.67 62.9536 240.67 56.1355 240.67 49.2075C240.936 49.1849 241.274 49.1321 241.612 49.1314C244.747 49.125 247.882 49.1222 251.017 49.1288C256.017 49.1395 258.07 52.1371 258.549 56.148C258.846 58.6367 257.058 61.4383 254.563 62.6742C256.174 64.978 257.776 67.2698 259.542 69.795C257.162 69.795 254.961 69.8066 252.76 69.7758C252.556 69.773 252.298 69.5409 252.165 69.3472C251.327 68.1326 250.517 66.8987 249.64 65.5901ZM250.507 57.9862C251.574 57.8392 252.336 57.1997 252.059 56.1711C251.883 55.5195 251.098 54.7162 250.455 54.5747C249.285 54.3171 248.018 54.5016 246.843 54.5016C246.843 55.7687 246.843 56.8564 246.843 57.9866C248.043 57.9866 249.153 57.9866 250.507 57.9862Z" fill="#004D40"/>
<path d="M163.649 96.1072C161.917 96.1073 160.315 96.1073 158.652 96.1073C158.652 89.1951 158.652 82.3804 158.652 75.4594C162.606 75.4594 166.577 75.0859 170.439 75.5696C173.953 76.0096 175.694 78.1573 176.275 81.4191C176.741 84.0367 175.911 87.2053 172.789 88.8685C172.714 88.9081 172.652 88.9692 172.507 89.0779C174.079 91.338 175.652 93.6002 177.396 96.1068C175.039 96.1068 172.99 96.2334 170.973 96.0326C170.337 95.9692 169.704 95.0956 169.219 94.4758C168.364 93.3826 167.539 92.2469 166.863 91.039C166.319 90.0687 165.659 89.7129 164.502 90.0443C164.502 91.7353 164.494 93.4705 164.507 95.2055C164.511 95.7279 164.55 96.2304 163.649 96.1072ZM170.138 82.9872C169.954 81.4672 169.402 80.8922 167.909 80.8166C166.81 80.7609 165.706 80.8057 164.561 80.8057C164.561 82.0124 164.561 83.1004 164.561 84.2953C165.364 84.2953 166.112 84.2599 166.856 84.3032C168.089 84.375 169.251 84.3047 170.138 82.9872Z" fill="#004D40"/>
<path d="M305.992 59.6326C304.985 60.7613 304.053 61.8149 303.028 62.9727C304.455 65.03 306.027 67.2948 307.763 69.7978C305.394 69.7978 303.353 69.8239 301.313 69.7714C300.983 69.7629 300.562 69.4792 300.353 69.1971C299.267 67.73 298.152 66.2721 297.215 64.7104C296.64 63.7521 295.998 63.418 294.906 63.7266C294.906 65.6744 294.906 67.6352 294.906 69.6972C292.95 69.6972 291.049 69.6972 289.051 69.6972C289.051 62.9499 289.051 56.1316 289.051 49.1275C290.355 49.1275 291.723 49.1275 293.091 49.1275C295.285 49.1275 297.48 49.1276 299.675 49.1274C304.484 49.1271 307.787 53.7487 306.421 58.4429C306.312 58.8171 306.185 59.1861 305.992 59.6326ZM299.074 57.9415C299.855 57.5051 300.692 56.9771 300.422 55.9722C300.134 54.8983 299.253 54.4295 298.095 54.4858C297.045 54.5368 295.992 54.4966 294.936 54.4966C294.936 55.729 294.936 56.815 294.936 57.9825C296.283 57.9825 297.563 57.9825 299.074 57.9415Z" fill="#004D40"/>
<path d="M270.948 54.4966C269.745 54.4966 268.676 54.4966 267.53 54.4966C267.53 55.1183 267.53 55.6727 267.53 56.3425C270.67 56.3425 273.828 56.3425 277.056 56.3425C277.056 58.1736 277.056 59.8915 277.056 61.727C273.885 61.727 270.729 61.727 267.514 61.727C267.514 62.576 267.514 63.3093 267.514 64.1594C271.067 64.1594 274.581 64.1594 278.148 64.1594C278.148 66.05 278.148 67.8262 278.148 69.7007C272.603 69.7007 267.031 69.7007 261.363 69.7007C261.363 62.9458 261.363 56.1278 261.363 49.2185C266.883 49.2185 272.455 49.2185 278.115 49.2185C278.115 50.8926 278.115 52.6113 278.115 54.4966C275.792 54.4966 273.437 54.4966 270.948 54.4966Z" fill="#004D40"/>
<path d="M200.468 69.2615C196.607 69.5159 192.863 69.7699 189.031 70.0298C189.031 62.8975 189.031 56.0837 189.031 48.8796C193.2 49.1437 197.411 49.0106 201.45 49.7808C205.347 50.5241 208.789 54.0484 208.915 59.0045C209.043 64.0333 205.759 67.637 201.583 68.9845C201.255 69.0904 200.918 69.1694 200.468 69.2615ZM197.125 54.4967C196.386 54.4967 195.648 54.4967 194.966 54.4967C194.966 57.8296 194.966 60.9752 194.966 64.1611C196.081 64.1611 197.107 64.1895 198.131 64.1549C199.967 64.0928 201.8 62.7359 202.403 61.0175C203.499 57.8977 201.577 54.5149 197.125 54.4967Z" fill="#004D40"/>
<path d="M271.74 91.0733C271.749 92.801 271.749 94.3996 271.749 96.0514C266.188 96.0514 260.736 96.0514 255.186 96.0514C255.186 89.2643 255.186 82.446 255.186 75.5317C260.601 75.5317 266.084 75.5317 271.66 75.5317C271.66 77.1924 271.66 78.9114 271.66 80.75C268.28 80.75 264.856 80.75 261.351 80.75C261.351 81.4202 261.351 81.9747 261.351 82.6446C264.48 82.6446 267.638 82.6446 270.869 82.6446C270.869 84.4754 270.869 86.1933 270.869 88.0294C267.709 88.0294 264.553 88.0294 261.334 88.0294C261.334 88.9682 261.334 89.7913 261.334 90.7381C264.354 90.7381 267.342 90.7293 270.33 90.7473C270.797 90.7502 271.263 90.8754 271.74 91.0733Z" fill="#004D40"/>
<path d="M333.822 90.7383C334.487 90.7383 335.02 90.7383 335.638 90.7383C335.638 92.5082 335.638 94.2269 335.638 96.027C330.177 96.027 324.695 96.027 319.135 96.027C319.135 89.2187 319.135 82.4009 319.135 75.5095C324.619 75.5095 330.101 75.5095 335.654 75.5095C335.654 77.2391 335.654 78.9571 335.654 80.7921C332.116 80.7921 328.602 80.7921 325.03 80.7921C325.03 81.4621 325.03 82.0162 325.03 82.6389C328.288 82.6389 331.501 82.6389 334.816 82.6389C334.816 84.4206 334.816 86.1402 334.816 87.9786C331.645 87.9786 328.4 87.9786 325.064 87.9786C325.064 88.9155 325.064 89.7396 325.064 90.7383C327.906 90.7383 330.798 90.7383 333.822 90.7383Z" fill="#004D40"/>
<path d="M186.274 96.1075C183.907 96.1075 181.674 96.1075 179.363 96.1075C179.363 89.2217 179.363 82.404 179.363 75.5112C184.842 75.5112 190.325 75.5112 195.879 75.5112C195.879 77.2354 195.879 78.9533 195.879 80.7883C192.347 80.7883 188.833 80.7883 185.26 80.7883C185.26 81.4577 185.26 82.0118 185.26 82.6821C188.542 82.6821 191.788 82.6821 195.088 82.6821C195.088 84.4824 195.088 86.1691 195.088 87.9739C191.877 87.9739 188.632 87.9739 185.294 87.9739C185.294 88.9108 185.294 89.7348 185.294 90.6757C188.75 90.6757 192.264 90.6757 195.864 90.6757C195.864 92.5058 195.864 94.2246 195.864 96.1075C192.73 96.1075 189.569 96.1075 186.274 96.1075Z" fill="#004D40"/>
<path d="M358.266 49.4751C357.006 50.9128 355.744 52.2239 354.532 53.5807C353.359 54.895 352.238 56.2563 351.005 57.7019C353.69 61.6233 356.403 65.5863 359.284 69.7949C356.792 69.7949 354.501 69.815 352.212 69.7645C351.976 69.7593 351.712 69.3586 351.527 69.0953C349.934 66.8313 348.357 64.5566 346.77 62.278C345.367 63.1509 344.602 64.2638 344.832 66.0124C344.989 67.1963 344.862 68.4174 344.862 69.71C342.828 69.71 340.838 69.71 338.764 69.71C338.764 62.9229 338.764 56.1041 338.764 49.2062C340.735 49.2062 342.724 49.2062 344.831 49.2062C344.831 51.5422 344.831 53.8832 344.831 56.6099C346.523 54.6571 348.067 53.0495 349.4 51.2829C350.489 49.8385 351.545 48.7571 353.583 49.0931C355.124 49.3471 356.716 49.2881 358.266 49.4751Z" fill="#004D40"/>
<path d="M129.883 93.841C128.496 91.3146 128.161 88.869 130.088 86.5967C130.821 85.7327 131.842 85.1127 132.796 84.3284C131.446 82.0004 131.15 79.561 133.089 77.4035C133.907 76.4929 135.109 75.6708 136.279 75.3788C139.498 74.5754 143.497 75.4499 144.387 79.1188C145.034 81.7874 144.742 83.1615 141.361 85.1023C141.104 85.2498 140.84 85.3852 140.481 85.5793C141.019 86.2726 141.522 86.9201 142.216 87.8144C142.863 86.6248 143.406 85.6268 143.917 84.6887C145.088 85.2009 146.299 85.6793 147.451 86.2722C147.716 86.4083 148.005 87.0625 147.894 87.2669C147.169 88.5985 146.337 89.8718 145.511 91.2107C146.429 92.2554 147.413 93.3757 148.458 94.565C147.151 95.1868 145.921 95.7914 144.673 96.3571C144.044 96.6424 143.455 96.6595 142.987 95.9833C142.659 95.5096 142.229 95.1062 141.865 94.6954C138.284 97.0448 132.62 97.0833 129.883 93.841ZM135.283 88.3716C134.663 89.444 134.574 90.5974 135.535 91.4021C136.374 92.1049 137.468 92.0319 138.62 91.238C137.508 90.1939 136.47 89.22 135.283 88.3716ZM137.751 82.6501C138.203 82.3916 138.852 82.2387 139.061 81.8498C139.366 81.2838 139.54 80.505 139.401 79.9017C139.326 79.5763 138.367 79.132 138.015 79.2699C137.515 79.4654 136.925 80.129 136.889 80.629C136.846 81.2376 137.339 81.884 137.751 82.6501Z" fill="#004D40"/>
<path d="M328.072 62.3402C325.639 61.5404 323.189 61.0331 321.007 59.9737C318.39 58.7026 318.322 54.9869 319.279 52.7841C320.343 50.3382 322.352 49.303 324.831 48.8516C328.839 48.1217 332.415 49.134 335.794 51.461C334.778 52.8876 333.776 54.2957 332.854 55.5901C331.175 54.9846 329.569 54.3197 327.908 53.8494C327.248 53.6625 326.447 53.8279 325.746 53.9908C325.441 54.0618 325.045 54.5164 325.023 54.8207C324.999 55.1479 325.291 55.7036 325.576 55.8112C326.744 56.2508 327.977 56.511 329.156 56.9241C330.816 57.5056 332.488 58.0789 334.083 58.8121C335.9 59.6477 336.5 62.5291 336.183 64.0901C335.241 68.7267 332.339 69.6152 328.973 70.0092C325.221 70.4483 321.691 69.4236 318.544 67.2652C318.251 67.0641 318.002 66.7985 317.664 66.5034C318.713 65.1802 319.689 63.912 320.728 62.6983C320.832 62.5773 321.379 62.7017 321.627 62.8587C323.609 64.1111 325.686 65.0402 328.096 64.9652C328.363 64.9569 328.714 65.0326 328.88 64.8946C329.322 64.5283 329.684 64.0663 330.078 63.6423C329.726 63.3264 329.398 62.9776 329.015 62.7066C328.778 62.5392 328.457 62.4903 328.072 62.3402Z" fill="#004D40"/>
<path d="M206.094 82.501C208.372 83.2271 210.59 83.8097 212.748 84.5623C215.752 85.6095 216.133 88.1059 215.815 90.7847C215.55 93.0232 214.268 94.7464 212.162 95.5032C207.108 97.3191 202.374 96.3733 198.014 93.3771C197.794 93.2255 197.705 92.4722 197.879 92.2294C198.641 91.1613 199.489 90.1465 200.389 89.1907C200.566 89.0025 201.219 89.0069 201.47 89.1824C203.422 90.5458 205.524 91.3829 207.943 91.2759C208.122 91.268 208.354 91.3446 208.472 91.259C208.974 90.8936 209.443 90.482 209.924 90.0872C209.5 89.6864 209.14 89.0785 208.64 88.9236C207.11 88.4504 205.475 88.2927 203.979 87.7443C202.538 87.2157 201.009 86.5883 199.889 85.5901C197.443 83.4104 198.267 78.2623 201.03 76.5211C205.253 73.8604 211.122 74.7789 214.857 77.3625C215.076 77.5144 215.154 78.2505 214.985 78.5176C214.199 79.7628 213.302 80.9387 212.581 81.9478C210.771 81.2864 209.045 80.6368 207.302 80.0351C206.98 79.9242 206.523 79.8792 206.248 80.0264C205.643 80.3498 204.767 80.7293 204.639 81.2441C204.463 81.952 205.214 82.4002 206.094 82.501Z" fill="#004D40"/>
<path d="M29.344 124.027C29.3306 123.652 29.3171 123.277 29.3713 122.766C29.4979 122.587 29.5398 122.53 29.5646 122.461C31.0325 122.461 32.5005 122.461 34.1226 122.461C34.402 119.649 34.6474 116.92 34.9509 114.197C35.2749 111.29 35.6592 108.39 36.005 105.485C36.1026 104.666 36.1574 103.841 36.3467 102.887C36.6831 102.772 36.9046 102.79 37.1261 102.808C37.4563 103.194 37.7865 103.58 38.1464 104.145C38.2736 104.542 38.3711 104.76 38.4686 104.978C38.457 105.524 38.4454 106.069 38.3281 106.746C38.2149 107.139 38.2073 107.401 38.1998 107.663C38.1882 108.121 38.1766 108.578 38.0593 109.165C37.9461 109.555 37.9385 109.817 37.931 110.079C37.9194 110.624 37.9078 111.17 37.7905 111.847C37.6773 112.239 37.6697 112.501 37.6622 112.763C37.6506 113.221 37.639 113.679 37.5217 114.265C37.4085 114.656 37.4009 114.918 37.3934 115.18C37.3818 115.725 37.3702 116.271 37.2529 116.947C37.1397 117.34 37.1322 117.602 37.1246 117.864C37.1246 118.173 37.1246 118.482 37.1246 119.028C39.4592 115.952 41.6709 113.039 44.0499 110.094C44.2723 110.061 44.3272 110.058 44.3822 110.056C44.7574 110.262 45.1326 110.468 45.4221 110.845C45.0805 111.428 44.8517 111.861 44.5643 112.25C42.4891 115.061 40.3874 117.853 38.3412 120.685C38.134 120.972 38.2393 121.484 38.1996 121.891C38.4157 122.066 38.6304 122.391 38.8481 122.393C42.2451 122.425 45.6424 122.416 49.1944 122.416C49.1944 119.319 49.1944 116.294 49.2782 113.143C49.3621 113.017 49.4892 113.009 49.4892 113.009C50.0302 113.013 50.5711 113.017 51.2745 113.02C51.4371 113.018 51.5644 113.02 51.5644 113.02C51.5644 116.097 51.5644 119.174 51.5644 122.333C55.3538 122.333 59.0409 122.333 62.8302 122.333C60.0604 118.639 57.3083 114.969 54.53 111.263C55.3042 110.725 56.0112 110.234 56.7294 109.735C59.0431 112.809 61.3032 115.813 63.7829 119.108C63.5236 116.425 63.3076 114.085 63.0684 111.747C62.8454 109.567 62.362 107.38 62.4559 105.217C62.5063 104.056 63.5303 102.937 64.115 101.799C64.2745 101.813 64.4339 101.828 64.5933 101.842C65.3172 108.652 66.0411 115.462 66.7808 122.42C68.1513 122.42 69.5688 122.42 71.1357 122.488C71.3291 122.615 71.3858 122.656 71.4551 122.681C71.4686 123.056 71.482 123.43 71.3522 123.916C57.254 124.027 43.299 124.027 29.344 124.027Z" fill="#004D40"/>
<path d="M224.435 56.9128C225.369 56.9128 226.17 56.9128 227.05 56.9128C227.05 58.7818 227.05 60.59 227.05 62.5164C223.905 62.5164 220.75 62.5164 217.478 62.5164C217.478 64.9769 217.478 67.3232 217.478 69.733C215.462 69.733 213.562 69.733 211.602 69.733C211.602 62.8764 211.602 56.0578 211.602 49.1833C217.105 49.1833 222.557 49.1833 228.108 49.1833C228.108 50.8695 228.108 52.5891 228.108 54.4284C224.659 54.4284 221.145 54.4284 217.543 54.4284C217.543 55.2745 217.543 56.0091 217.543 56.9128C219.768 56.9128 222.035 56.9128 224.435 56.9128Z" fill="#004D40"/>
<path d="M312.642 88.8655C314.23 90.0699 315.72 91.2787 317.208 92.4865C313.641 96.9495 306.481 97.8801 301.531 93.9582C296.428 89.9154 295.904 83.2456 300.189 78.6264C304.634 73.8342 312.578 73.4854 317.143 78.8057C315.683 80.0709 314.222 81.3365 312.716 82.6407C311.54 81.3985 310.211 80.4133 308.32 80.5264C306.253 80.6499 304.217 82.3985 303.755 84.5427C303.291 86.6955 304.365 89.1142 306.165 90.0887C308.064 91.1166 310.358 91.3002 312.642 88.8655Z" fill="#004D40"/>
<path d="M27.2175 101.651C28.939 104.665 30.9723 107.287 33.4917 109.553C33.8783 109.9 33.8567 110.818 33.8393 111.467C33.8171 112.293 33.6067 113.114 33.4757 113.949C30.0221 113.972 22.2006 102.625 20.9512 95.9381C17.9434 79.8414 26.7327 66.552 38.9601 61.7595C38.8619 63.1573 38.8785 64.5246 38.6102 65.8336C38.5216 66.266 37.7167 66.5783 37.2074 66.8943C30.5323 71.0354 26.2947 76.8494 24.7036 84.6074C23.4765 90.5907 24.5645 96.1703 27.2175 101.651Z" fill="#FF5E00"/>
<path d="M71.8431 104.513C75.7495 99.1433 77.1671 93.1444 76.5495 86.7539C76.0314 81.3922 73.8835 76.6214 70.3266 72.4591C68.3175 70.1079 65.9635 68.2558 63.353 66.7209C62.4979 66.2182 62.2304 65.5959 62.1168 64.8175C61.973 63.832 61.9818 62.8243 61.9238 61.8262C69.9471 64.4304 78.3763 73.3817 80.056 83.9376C82.0379 96.3921 77.7979 106.466 67.7875 114.207C66.6159 112.269 66.8539 110.072 68.1858 108.659C69.4267 107.342 70.5879 105.951 71.8431 104.513Z" fill="#FF5E00"/>
<path d="M180.635 64.161C182.82 64.161 184.872 64.161 187.002 64.161C187.002 66.0334 187.002 67.84 187.002 69.723C181.976 69.723 176.945 69.723 171.836 69.723C171.836 62.9151 171.836 56.102 171.836 49.208C173.719 49.208 175.617 49.208 177.628 49.208C177.628 54.1307 177.628 59.067 177.628 64.161C178.655 64.161 179.578 64.161 180.635 64.161Z" fill="#004D40"/>
<path d="M228.207 83.2215C228.207 80.5905 228.207 78.0938 228.207 75.5168C230.167 75.5168 232.065 75.5168 234.076 75.5168C234.076 80.5288 234.076 85.5546 234.076 90.693C237.336 90.693 240.489 90.693 243.719 90.693C243.719 92.5217 243.719 94.2384 243.719 96.0319C238.603 96.0319 233.482 96.0319 228.207 96.0319C228.207 91.8108 228.207 87.5832 228.207 83.2215Z" fill="#004D40"/>
<path d="M106.443 120C106.443 127.191 106.443 134.248 106.443 141.384C105.979 141.413 105.641 141.435 105.199 141.463C105.199 101.476 105.199 61.5626 105.199 21.5629C105.563 21.5396 105.901 21.518 106.443 21.4833C106.443 54.3308 106.443 87.0983 106.443 120Z" fill="#B3B4B4"/>
<path d="M310.506 69.7985C309.607 69.9216 309.646 69.4217 309.647 68.898C309.654 62.3729 309.652 55.8478 309.652 49.2251C311.665 49.2251 313.655 49.2251 315.739 49.2251C315.739 55.9765 315.739 62.7913 315.739 69.7986C314.084 69.7986 312.36 69.7986 310.506 69.7985Z" fill="#004D40"/>
<path d="M224.711 90.7381C224.711 92.5646 224.711 94.2568 224.711 96.0279C222.659 96.0279 220.671 96.0279 218.605 96.0279C218.605 89.2226 218.605 82.409 218.605 75.5156C220.581 75.5156 222.569 75.5156 224.711 75.5156C224.711 80.5388 224.711 85.5714 224.711 90.7381Z" fill="#004D40"/>
<path d="M233.323 49.1274C234.612 49.1274 235.769 49.1274 237.001 49.1274C237.001 56.0134 237.001 62.8273 237.001 69.7201C235.023 69.7201 233.035 69.7201 230.971 69.7201C230.971 62.9116 230.971 56.0976 230.971 49.1274C231.702 49.1274 232.446 49.1274 233.323 49.1274Z" fill="#004D40"/>
<path d="M249.428 96.1074C248.05 96.1074 246.804 96.1074 245.484 96.1074C245.484 89.2186 245.484 82.4045 245.484 75.5132C247.467 75.5132 249.455 75.5132 251.518 75.5132C251.518 82.3267 251.518 89.1408 251.518 96.1074C250.868 96.1074 250.214 96.1074 249.428 96.1074Z" fill="#004D40"/>
<path d="M167.996 60.9395C167.996 63.9283 167.996 66.7829 167.996 69.7178C166.036 69.7178 164.138 69.7178 162.16 69.7178C162.16 62.9165 162.16 56.1029 162.16 49.2083C164.042 49.2083 165.94 49.2083 167.996 49.2083C167.996 53.0647 167.996 56.935 167.996 60.9395Z" fill="#004D40"/>
<path d="M141.61 106.398C139.823 103.474 135.549 102.828 132.902 104.977C130.425 106.988 129.655 110.09 130.774 112.558C131.927 115.101 135.749 117.016 138.968 115.327C139.33 115.137 139.81 115.172 140.254 115.251C138.963 117.304 133.703 117.08 131.946 115.603C128.377 112.601 128.533 108.237 131.14 105.193C132.886 103.152 135.35 102.409 137.971 102.863C140.402 103.285 142.206 104.727 143.122 107.11C144.161 109.814 143.087 112.665 140.659 113.309C139.954 113.496 139.009 113.328 138.354 112.983C137.811 112.696 137.534 112.605 137.018 112.938C135.643 113.825 134.503 113.779 133.266 112.85C132.082 111.96 131.909 110.771 132.235 109.406C132.849 106.837 134.256 105.6 136.599 105.804C137.291 105.864 137.949 106.307 138.499 106.345C139.143 106.212 139.788 106.079 140.611 105.909C140.212 107.722 139.817 109.274 139.561 110.848C139.499 111.228 139.789 111.869 140.108 112.046C140.401 112.209 141.067 112.044 141.37 111.789C142.74 110.63 142.826 108.535 141.61 106.398ZM134.948 108.037C134.672 108.52 134.328 108.978 134.134 109.493C133.732 110.562 134.333 111.801 135.324 111.925C136.422 112.063 137.155 111.456 137.636 110.526C138.11 109.61 138.522 108.653 137.602 107.778C136.762 106.979 135.913 107.367 134.948 108.037Z" fill="#626466"/>
<path d="M166.58 107.206C167.553 108.541 168.47 109.794 169.577 111.306C169.577 108.232 169.577 105.487 169.577 102.646C170.31 102.646 170.952 102.646 171.679 102.646C171.679 106.672 171.679 110.716 171.679 114.75C169.955 115.513 169.175 114.304 168.348 113.207C166.589 110.872 164.836 108.533 162.927 105.992C162.927 109.057 162.927 111.885 162.927 114.806C162.274 114.806 161.723 114.806 161.088 114.806C161.088 110.775 161.088 106.731 161.088 102.698C162.666 102.016 163.439 103.061 164.219 104.087C164.989 105.099 165.757 106.112 166.58 107.206Z" fill="#626466"/>
<path d="M187.349 105.243C187.349 108.497 187.349 111.618 187.349 114.773C186.08 115.049 185.202 114.955 184.373 113.75C182.59 111.158 180.569 108.73 178.508 106.057C178.508 109.072 178.508 111.926 178.508 114.838C177.837 114.838 177.314 114.838 176.693 114.838C176.693 110.819 176.693 106.777 176.693 102.683C177.981 102.207 178.791 102.754 179.571 103.845C181.315 106.286 183.185 108.637 185.16 111.228C185.16 108.235 185.16 105.493 185.16 102.651C185.89 102.651 186.532 102.651 187.349 102.651C187.349 103.446 187.349 104.278 187.349 105.243Z" fill="#626466"/>
<path d="M150.822 110.604C150.307 110.627 149.92 110.65 149.453 110.678C149.453 112.086 149.453 113.41 149.453 114.816C148.727 114.816 148.087 114.816 147.371 114.816C147.371 110.766 147.371 106.731 147.371 102.438C149.649 102.566 151.934 102.449 154.109 102.882C156.468 103.352 157.373 105.222 156.971 107.762C156.739 109.227 154.747 110.594 152.828 110.604C152.202 110.607 151.577 110.604 150.822 110.604ZM154.712 107.625C155.243 105.815 154.964 105.159 153.113 104.7C151.956 104.413 150.716 104.46 149.51 104.356C149.51 105.951 149.51 107.275 149.51 108.735C151.269 108.529 153.108 109.314 154.712 107.625Z" fill="#626466"/>
<path d="M29.3228 124.145C43.298 124.027 57.253 124.027 71.331 124.027C71.468 124.337 71.4818 124.647 71.4985 125.023C71.1688 125.05 70.8696 125.097 70.5704 125.098C57.2024 125.101 43.8343 125.102 30.4662 125.097C29.8954 125.097 29.1098 125.346 29.3228 124.145Z" fill="#004D40"/>
<path d="M191.976 102.573C192.626 102.556 193.15 102.556 193.758 102.556C193.758 106.047 193.758 109.429 193.758 112.947C195.91 112.947 197.987 112.947 200.157 112.947C200.157 113.629 200.157 114.18 200.157 114.818C197.389 114.818 194.597 114.818 191.651 114.818C191.651 111.381 191.641 107.957 191.66 104.534C191.664 103.885 191.784 103.238 191.976 102.573Z" fill="#626466"/>
<path d="M38.2839 121.857C38.2387 121.484 38.1334 120.972 38.3407 120.685C40.3868 117.853 42.4886 115.061 44.5638 112.25C44.8511 111.861 45.0799 111.428 45.4681 110.93C45.7437 111.144 46.0931 111.597 46.0001 111.722C43.484 115.109 40.9226 118.463 38.2839 121.857Z" fill="#004D40"/>
<path d="M59.2891 49.6713C58.6083 48.9857 58.8039 48.6081 59.6617 48.5983C61.4439 48.5778 63.2283 48.5529 65.0074 48.6313C65.2998 48.6442 65.5694 49.1738 65.8469 49.5799C63.7006 49.6854 61.5568 49.6755 59.2891 49.6713Z" fill="#004D40"/>
<path d="M55.6934 71.238C56.9147 71.4497 58.1419 71.7654 59.3732 72.0647C60.009 72.2192 60.6519 72.3446 61.4006 72.4832C61.5096 72.9166 61.5096 73.35 61.5096 73.8859C59.8836 73.3117 58.3403 72.8025 56.8296 72.2104C56.4043 72.0437 56.0746 71.6337 55.6934 71.238Z" fill="#004D40"/>
<path d="M68.4259 49.6714C67.8619 49.1306 67.8127 48.6548 68.663 48.611C69.8165 48.5516 70.9794 48.5446 72.1288 48.6352C72.3849 48.6553 72.6015 49.1749 72.8337 49.58C71.4039 49.6854 69.9768 49.6755 68.4259 49.6714Z" fill="#004D40"/>
<path d="M75.4161 49.6713C74.7374 48.9881 74.9281 48.6236 75.7871 48.5961C76.7653 48.5647 77.7444 48.5635 78.8635 48.5295C79.2094 48.8163 79.415 49.1226 79.7793 49.6656C78.2068 49.6656 76.8732 49.6656 75.4161 49.6713Z" fill="#004D40"/>
<path d="M65.8789 59.4457C66.521 59.3286 67.143 59.3286 67.851 59.3286C67.8891 58.3045 68.3252 57.7743 69.4595 57.9864C69.5888 58.293 69.6049 58.5997 69.6243 58.9675C69.1834 59.0237 68.7663 59.0769 68.261 59.1413C68.261 59.5573 68.261 59.9317 68.261 60.5809C67.4599 59.8499 66.1014 61.4342 65.8789 59.4457Z" fill="#004D40"/>
<path d="M72.8672 59.4457C73.5093 59.3286 74.1313 59.3286 74.8393 59.3286C74.8774 58.3046 75.3134 57.7742 76.4477 57.9864C76.5771 58.293 76.5932 58.5997 76.6126 58.9675C76.1728 59.0236 75.7572 59.0766 75.2493 59.1413C75.2493 59.5573 75.2493 59.9317 75.2493 60.5809C74.4481 59.8499 73.0897 61.4342 72.8672 59.4457Z" fill="#004D40"/>
<path d="M49.2135 69.3672C49.9325 69.2617 50.6314 69.2617 51.4467 69.2617C51.5631 69.66 51.5631 70.0584 51.5631 70.3171C50.7968 70.3171 50.036 70.3171 49.1934 70.3171C49.1934 70.1696 49.1934 69.8212 49.2135 69.3672Z" fill="#004D40"/>
<path d="M68.4162 56.1143C67.9073 55.0719 67.9073 55.0719 69.4631 55.0334C69.573 55.3596 69.573 55.6858 69.573 56.1086C69.1881 56.1086 68.8587 56.1086 68.4162 56.1143Z" fill="#004D40"/>
<path d="M75.4045 56.1143C74.8956 55.0719 74.8956 55.0719 76.4514 55.0334C76.5613 55.3596 76.5613 55.6858 76.5613 56.1086C76.1764 56.1086 75.8469 56.1086 75.4045 56.1143Z" fill="#004D40"/>
<path d="M75.4045 52.8929C74.8956 51.8504 74.8956 51.8504 76.4514 51.812C76.5613 52.1381 76.5613 52.4643 76.5613 52.8871C76.1764 52.8871 75.8469 52.8871 75.4045 52.8929Z" fill="#004D40"/>
<path d="M68.4162 52.8929C67.9073 51.8504 67.9073 51.8504 69.4631 51.812C69.573 52.1381 69.573 52.4643 69.573 52.8871C69.1881 52.8871 68.8587 52.8871 68.4162 52.8929Z" fill="#004D40"/>
<path d="M71.5242 51.9238C72.1604 51.8383 72.9523 51.6087 72.8351 52.8075C72.3014 52.7556 71.3007 53.301 71.5242 51.9238Z" fill="#004D40"/>
<path d="M64.5359 55.1454C65.1721 55.06 65.964 54.8303 65.8468 56.0292C65.313 55.9774 64.3124 56.5226 64.5359 55.1454Z" fill="#004D40"/>
<path d="M64.5359 51.924C65.1721 51.8385 65.964 51.6089 65.8468 52.8077C65.313 52.7559 64.3124 53.3012 64.5359 51.924Z" fill="#004D40"/>
<path d="M64.5359 58.0983C65.1721 58.0129 65.964 57.7832 65.8468 58.982C65.313 58.9302 64.3124 59.4755 64.5359 58.0983Z" fill="#004D40"/>
<path d="M71.5242 55.1454C72.1604 55.06 72.9523 54.8303 72.8351 56.0292C72.3014 55.9773 71.3007 56.5227 71.5242 55.1454Z" fill="#004D40"/>
<path d="M71.5242 58.0983C72.1604 58.0128 72.9523 57.7832 72.8351 58.9821C72.3014 58.9302 71.3007 59.4755 71.5242 58.0983Z" fill="#004D40"/>
<path d="M37.1109 102.714C36.9045 102.79 36.683 102.773 36.397 102.784C36.3189 102.504 36.3052 102.195 36.2754 101.519C36.6773 102.058 36.8865 102.338 37.1109 102.714Z" fill="#004D40"/>
<path d="M37.4789 115.14C37.4012 114.918 37.4087 114.656 37.5018 114.378C37.5796 114.608 37.5718 114.854 37.4789 115.14Z" fill="#004D40"/>
<path d="M38.2835 107.623C38.2059 107.401 38.2134 107.139 38.3065 106.861C38.3842 107.092 38.3765 107.337 38.2835 107.623Z" fill="#004D40"/>
<path d="M37.2093 117.824C37.1316 117.602 37.1392 117.34 37.2323 117.063C37.31 117.293 37.3023 117.539 37.2093 117.824Z" fill="#004D40"/>
<path d="M37.7464 112.724C37.6687 112.501 37.6763 112.239 37.7694 111.962C37.8471 112.192 37.8394 112.438 37.7464 112.724Z" fill="#004D40"/>
<path d="M51.6961 62.5609C51.5898 62.3469 51.541 62.1308 51.4922 61.9148C51.6182 62.0747 51.7442 62.2347 51.8684 62.4878C51.8666 62.5811 51.7536 62.5588 51.6961 62.5609Z" fill="#004D40"/>
<path d="M38.016 110.039C37.9383 109.817 37.9458 109.555 38.0389 109.277C38.1167 109.508 38.1089 109.753 38.016 110.039Z" fill="#004D40"/>
<path d="M38.5479 104.945C38.3703 104.76 38.2728 104.542 38.1777 104.227C38.3294 104.391 38.4787 104.651 38.5479 104.945Z" fill="#004D40"/>
<path d="M71.6932 50.5032C71.7391 50.5839 71.6972 50.6405 71.5907 50.7091C71.5697 50.6531 71.5961 50.5724 71.6932 50.5032Z" fill="#004D40"/>
<path d="M44.3572 109.985C44.3271 110.058 44.2722 110.061 44.1348 110.059C44.1456 110.009 44.2389 109.962 44.3572 109.985Z" fill="#004D40"/>
<path d="M49.3846 33.5903C49.4305 33.671 49.3886 33.7276 49.2821 33.7963C49.2611 33.7403 49.2875 33.6596 49.3846 33.5903Z" fill="#004D40"/>
<path d="M49.4628 112.938C49.4877 113.009 49.3606 113.017 49.2969 113.019C49.3014 112.969 49.3697 112.919 49.4628 112.938Z" fill="#004D40"/>
<path d="M71.466 122.611C71.3852 122.656 71.3285 122.615 71.2598 122.508C71.3158 122.487 71.3966 122.514 71.466 122.611Z" fill="#004D40"/>
<path d="M29.494 122.449C29.5399 122.53 29.498 122.587 29.3915 122.655C29.3705 122.599 29.3969 122.519 29.494 122.449Z" fill="#004D40"/>
<path d="M51.5754 33.7515C51.4946 33.7974 51.4379 33.7555 51.3691 33.6492C51.4252 33.6282 51.506 33.6546 51.5754 33.7515Z" fill="#004D40"/>
<path d="M51.5745 112.947C51.564 113.02 51.4366 113.018 51.373 113.013C51.4014 112.963 51.4932 112.918 51.5745 112.947Z" fill="#004D40"/>
<path d="M73.8859 39.3891C73.8051 39.4349 73.7484 39.3931 73.6797 39.2868C73.7358 39.2658 73.8166 39.2922 73.8859 39.3891Z" fill="#004D40"/>
<path d="M64.7049 50.5032C64.7508 50.5839 64.7089 50.6405 64.6025 50.7091C64.5814 50.6531 64.6079 50.5724 64.7049 50.5032Z" fill="#004D40"/>
<path d="M76.5734 56.5703C76.4926 56.6161 76.4359 56.5743 76.3672 56.4679C76.4233 56.4469 76.5041 56.4733 76.5734 56.5703Z" fill="#004D40"/>
<path d="M71.6932 56.4092C71.7391 56.4899 71.6972 56.5465 71.5907 56.6151C71.5697 56.5591 71.5961 56.4784 71.6932 56.4092Z" fill="#004D40"/>
<path d="M69.5851 56.5703C69.5043 56.6161 69.4476 56.5743 69.3789 56.4679C69.435 56.4469 69.5158 56.4733 69.5851 56.5703Z" fill="#004D40"/>
<path d="M64.7049 56.4092C64.7508 56.4899 64.7089 56.5465 64.6025 56.6151C64.5814 56.5591 64.6079 56.4784 64.7049 56.4092Z" fill="#004D40"/>
<path d="M69.5851 50.6642C69.5043 50.7101 69.4476 50.6683 69.3789 50.5619C69.435 50.5409 69.5158 50.5673 69.5851 50.6642Z" fill="#004D40"/>
<path d="M76.5734 53.6174C76.4926 53.6632 76.4359 53.6214 76.3672 53.515C76.4233 53.4941 76.5041 53.5204 76.5734 53.6174Z" fill="#004D40"/>
<path d="M71.6932 53.4561C71.7391 53.5368 71.6972 53.5934 71.5907 53.662C71.5697 53.606 71.5961 53.5253 71.6932 53.4561Z" fill="#004D40"/>
<path d="M69.5851 53.6174C69.5043 53.6632 69.4476 53.6214 69.3789 53.515C69.435 53.4941 69.5158 53.5204 69.5851 53.6174Z" fill="#004D40"/>
<path d="M64.7049 53.4561C64.7508 53.5368 64.7089 53.5934 64.6025 53.662C64.5814 53.606 64.6079 53.5253 64.7049 53.4561Z" fill="#004D40"/>
<path d="M76.5734 50.6642C76.4926 50.7101 76.4359 50.6683 76.3672 50.5619C76.4233 50.5409 76.5041 50.5673 76.5734 50.6642Z" fill="#004D40"/>
<path d="M42.2013 70.0242C42.4701 67.5571 42.739 65.2055 43.0075 62.8538C43.2001 61.1665 43.3922 59.4792 43.5863 57.7756C45.2225 57.7756 46.7678 57.7756 48.3994 57.7756C47.3815 60.059 46.42 62.2722 45.411 64.4636C44.4017 66.6554 43.345 68.8253 42.2012 71.2319C42.2012 70.7138 42.2012 70.4267 42.2013 70.0242Z" fill="white"/>
<path d="M58.3395 70.8416C56.3881 66.5377 54.4368 62.2337 52.5801 57.8255C54.1971 57.7304 55.7194 57.7397 57.2417 57.7489C57.4232 58.8573 57.6677 59.9596 57.7742 61.0751C58.0775 64.2537 58.3247 67.4377 58.5229 70.7416C58.4519 70.8637 58.3395 70.8416 58.3395 70.8416Z" fill="white"/>
<path d="M58.5852 42.447C59.8236 43.8957 61.0621 45.3443 62.4261 46.9398C59.4349 46.9398 56.6542 46.9398 53.9141 46.7986C55.0496 45.5611 56.1271 44.4465 57.2491 43.3785C57.6377 43.0086 58.1366 42.7542 58.5852 42.447Z" fill="white"/>
<path d="M69.8759 41.6416C68.5006 43.1742 67.1252 44.7068 65.6056 46.4003C64.1953 44.801 62.8771 43.306 61.6953 41.7115C64.5131 41.6218 67.1945 41.6317 69.8759 41.6416Z" fill="white"/>
<path d="M35.3845 46.1085C33.8979 44.6763 32.4923 43.1915 31.0684 41.6874C33.8012 41.6874 36.5715 41.6874 39.524 41.6874C38.1248 43.1935 36.7951 44.6247 35.3845 46.1085Z" fill="white"/>
<path d="M43.2726 46.9799C41.6282 46.9799 40.1173 46.9799 38.3965 46.9799C39.8077 45.3916 41.1027 43.9342 42.268 42.6227C43.7122 44.0526 45.2114 45.5372 46.6684 46.9799C45.7575 46.9799 44.5817 46.9799 43.2726 46.9799Z" fill="white"/>
<path d="M29.089 43.6825C30.1101 44.7463 31.0653 45.7406 32.2244 46.9469C29.8806 46.9469 27.9356 46.9469 25.7949 46.9469C26.6189 45.4735 27.4026 44.0722 28.2604 42.5381C28.5939 43.008 28.8086 43.3105 29.089 43.6825Z" fill="white"/>
<path d="M72.8312 42.7156C73.5439 44.0701 74.2566 45.4246 75.0538 46.9397C72.9423 46.9397 70.934 46.9397 68.9668 46.798C70.2824 45.3428 71.5568 44.0292 72.8312 42.7156Z" fill="white"/>
<path d="M69.8775 41.5263C67.1934 41.6317 64.5121 41.6219 61.7067 41.6177C61.025 40.9304 61.2236 40.5513 62.0808 40.5446C64.3999 40.5265 66.7201 40.5081 69.0373 40.5771C69.3263 40.5857 69.5996 41.1201 69.8775 41.5263Z" fill="#004D40"/>
<path d="M47.2714 54.9551C46.1874 55.1762 45.0842 55.2896 43.8027 55.4214C43.9369 54.0456 44.0517 52.868 44.1833 51.519C45.2584 52.685 46.2553 53.7662 47.2714 54.9551Z" fill="white"/>
<path d="M56.704 51.5747C56.8115 52.7743 56.9189 53.9739 57.0342 55.261C55.7923 55.261 54.6979 55.261 53.6465 55.1187C54.6943 53.8425 55.6992 52.7086 56.704 51.5747Z" fill="white"/>
<path d="M55.0914 41.6416C54.0053 42.7787 52.9192 43.9159 51.6113 45.2853C51.6113 43.9438 51.6113 42.906 51.7469 41.7401C52.9522 41.6218 54.0218 41.6317 55.0914 41.6416Z" fill="white"/>
<path d="M48.6092 44.6572C47.6111 43.6581 46.6795 42.7337 45.6074 41.6699C46.9102 41.6699 47.9891 41.6699 49.1878 41.6699C49.1878 42.6736 49.1951 43.6389 49.166 44.6032C49.1646 44.6509 48.8464 44.6891 48.6092 44.6572Z" fill="white"/>
<path d="M58.588 42.3422C58.1365 42.7542 57.6375 43.0086 57.2489 43.3785C56.127 44.4465 55.0495 45.561 53.8716 46.6902C53.8703 46.2279 53.7819 45.5825 54.0637 45.2641C55.1494 44.0379 56.3401 42.9025 57.5185 41.7609C58.2084 41.0924 58.6064 41.2409 58.588 42.3422Z" fill="#004D40"/>
<path d="M54.5539 49.6952C53.6396 50.8229 52.7254 51.9506 51.6113 53.3248C51.6113 51.991 51.6113 50.9565 51.7455 49.7937C52.771 49.6754 53.6624 49.6853 54.5539 49.6952Z" fill="white"/>
<path d="M54.0212 38.4808C54.0438 39.95 52.9824 39.4639 52.3862 39.4033C52.0085 39.3649 51.5737 38.8154 51.3783 38.3959C51.2205 38.0571 51.3824 37.5698 51.4239 36.6968C52.4903 37.385 53.2538 37.8777 54.0212 38.4808Z" fill="#004D40"/>
<path d="M72.8344 42.6159C71.5585 44.0292 70.2841 45.3428 68.9262 46.6897C68.8087 46.4129 68.626 45.9817 68.7646 45.8119C69.795 44.5483 70.8773 43.3256 71.9922 42.1357C72.0601 42.0631 72.545 42.3803 72.8344 42.6159Z" fill="#004D40"/>
<path d="M57.2447 57.6335C55.7196 57.7396 54.1973 57.7303 52.5506 57.7349C52.3689 57.4548 52.3115 57.1607 52.2129 56.6557C53.7524 56.6557 55.223 56.6231 56.6885 56.6939C56.8877 56.7036 57.0617 57.2307 57.2447 57.6335Z" fill="#004D40"/>
<path d="M46.9605 49.6646C47.7317 49.6646 48.3906 49.6646 49.1183 49.6646C49.1183 50.7312 49.1183 51.7261 49.1183 52.9945C48.1398 51.8969 47.2887 50.9421 46.4375 49.9873C46.5744 49.8798 46.7114 49.7722 46.9605 49.6646Z" fill="white"/>
<path d="M56.7062 51.4747C55.7 52.7087 54.6951 53.8426 53.6056 55.0109C52.8657 54.052 53.9064 53.5472 54.2407 52.9097C54.6339 52.1599 55.3664 51.5799 55.9996 50.9762C56.0567 50.9218 56.4633 51.2331 56.7062 51.4747Z" fill="#004D40"/>
<path d="M55.0937 41.5264C54.0214 41.6317 52.9517 41.6219 51.7597 41.6177C51.5518 41.3913 51.4663 41.1592 51.3809 40.9271C52.3409 40.7976 53.2999 40.5969 54.2615 40.5838C54.5359 40.58 54.8179 41.1203 55.0937 41.5264Z" fill="#004D40"/>
<path d="M54.5561 49.5804C53.662 49.6855 52.7706 49.6756 51.7582 49.6715C51.5681 49.4047 51.4989 49.1322 51.4297 48.8597C52.2392 48.7717 53.0511 48.6119 53.8566 48.6394C54.0998 48.6477 54.3253 49.1755 54.5561 49.5804Z" fill="#004D40"/>
<path d="M58.3481 70.9319C58.34 70.8416 58.4524 70.8637 58.5096 70.8623C58.7152 70.9324 58.8636 71.0039 59.0119 71.0755C58.9464 71.1688 58.8809 71.2622 58.8154 71.3555C58.6623 71.2444 58.5092 71.1333 58.3481 70.9319Z" fill="#004D40"/>
<path d="M39.5121 97.1782C38.6977 94.9435 37.5332 92.8687 37.1803 90.6642C36.666 87.4519 36.7363 84.1463 36.5558 80.8805C36.5208 80.2479 36.6558 79.9279 37.4126 79.6811C41.5253 78.34 45.5863 76.8412 49.6941 75.4841C50.2459 75.3018 50.9921 75.5181 51.5963 75.7118C55.7956 77.0578 59.9812 78.4466 64.2293 79.8408C64.1975 84.7578 64.6489 89.7002 62.6635 94.4371C61.0506 98.2852 58.9487 101.737 55.6056 104.323C54.2262 105.39 52.8082 106.408 51.4078 107.447C50.7927 107.904 50.3401 107.908 49.5623 107.459C45.262 104.977 41.9435 101.585 39.5121 97.1782ZM47.7984 89.7293C47.3663 88.6029 46.9719 87.4597 46.484 86.3579C46.2794 85.8956 45.8972 85.2001 45.5594 85.1785C44.9997 85.1427 44.1306 85.3994 43.8777 85.8226C41.6815 89.4976 41.6651 93.3512 43.213 97.2675C43.5274 98.0628 44.0262 98.5787 44.9405 98.0759C45.7147 97.6501 45.8359 97.0687 45.4819 96.217C45.0856 95.2636 44.7992 94.2372 44.6524 93.2157C44.515 92.2601 44.623 91.2694 44.623 90.2941C44.777 90.2752 44.931 90.2563 45.0849 90.2374C45.3827 90.7009 45.6702 91.1713 45.98 91.6265C47.0514 93.2007 49.3063 93.9769 50.939 93.4784C52.1144 93.1195 51.986 92.3489 51.7108 91.5373C51.435 90.7242 50.9723 89.974 50.702 89.1596C49.7524 86.2981 50.5578 84.0655 52.4028 82.5127C52.2467 85.1469 53.461 87.153 55.0909 89.0065C55.822 89.8379 56.4916 90.8098 56.1551 91.9842C55.7524 93.3895 55.2718 94.7911 54.6377 96.1042C54.2844 96.8359 54.022 97.4235 54.7389 97.9512C55.4455 98.4713 56.1662 98.3762 56.6865 97.6074C58.5287 94.8857 59.8556 90.3401 56.9496 87.3049C55.2121 85.4902 54.2564 83.3417 55.1076 80.7141C55.2517 80.2693 55.1972 79.4829 54.9104 79.2464C54.5524 78.9511 53.7682 78.8472 53.3249 79.0333C50.9885 80.0145 49.1623 81.507 48.3382 84.0717C47.7366 85.9439 47.7931 87.7728 48.0337 89.746C48.0034 89.7834 47.9732 89.8208 47.7984 89.7293Z" fill="white"/>
<path d="M250.384 57.9863C249.152 57.9865 248.041 57.9865 246.842 57.9865C246.842 56.8563 246.842 55.7686 246.842 54.5014C248.016 54.5014 249.284 54.317 250.453 54.5746C251.096 54.7161 251.881 55.5194 252.057 56.171C252.335 57.1996 251.572 57.8391 250.384 57.9863Z" fill="white"/>
<path d="M170.097 83.0848C169.251 84.3046 168.089 84.375 166.856 84.3032C166.112 84.2598 165.364 84.2952 164.561 84.2952C164.561 83.1003 164.561 82.0123 164.561 80.8056C165.705 80.8056 166.81 80.7608 167.909 80.8165C169.402 80.8921 169.954 81.4671 170.097 83.0848Z" fill="white"/>
<path d="M298.958 57.9621C297.563 57.9827 296.282 57.9827 294.936 57.9827C294.936 56.8152 294.936 55.7291 294.936 54.4967C295.991 54.4967 297.045 54.537 298.094 54.486C299.252 54.4297 300.133 54.8984 300.422 55.9724C300.691 56.9773 299.855 57.5052 298.958 57.9621Z" fill="white"/>
<path d="M197.251 54.4966C201.578 54.5147 203.499 57.8975 202.403 61.0174C201.8 62.7357 199.967 64.0926 198.132 64.1547C197.108 64.1894 196.082 64.161 194.967 64.161C194.967 60.975 194.967 57.8295 194.967 54.4966C195.648 54.4966 196.387 54.4966 197.251 54.4966Z" fill="white"/>
<path d="M135.357 88.3088C136.469 89.22 137.507 90.1939 138.62 91.238C137.468 92.0319 136.374 92.1049 135.534 91.4021C134.573 90.5974 134.662 89.444 135.357 88.3088Z" fill="white"/>
<path d="M137.676 82.5821C137.34 81.8841 136.846 81.2376 136.889 80.629C136.925 80.1291 137.515 79.4654 138.015 79.27C138.367 79.132 139.326 79.5764 139.401 79.9017C139.54 80.505 139.366 81.2839 139.061 81.8498C138.852 82.2387 138.203 82.3917 137.676 82.5821Z" fill="white"/>
<path d="M135.025 107.967C135.913 107.367 136.762 106.979 137.602 107.779C138.522 108.653 138.11 109.61 137.636 110.527C137.155 111.456 136.422 112.063 135.324 111.925C134.333 111.801 133.732 110.562 134.134 109.493C134.328 108.978 134.672 108.52 135.025 107.967Z" fill="white"/>
<path d="M154.637 107.699C153.108 109.314 151.269 108.529 149.51 108.735C149.51 107.274 149.51 105.951 149.51 104.356C150.716 104.46 151.956 104.413 153.113 104.7C154.964 105.159 155.243 105.815 154.637 107.699Z" fill="white"/>
<path d="M48.1358 89.6448C47.7923 87.7728 47.7359 85.9439 48.3374 84.0718C49.1616 81.507 50.9878 80.0145 53.3242 79.0333C53.7675 78.8472 54.5517 78.9511 54.9097 79.2464C55.1965 79.483 55.251 80.2693 55.1069 80.7141C54.2556 83.3417 55.2114 85.4902 56.9489 87.305C59.8549 90.3401 58.528 94.8857 56.6858 97.6075C56.1655 98.3762 55.4448 98.4713 54.7382 97.9512C54.0213 97.4236 54.2837 96.836 54.637 96.1042C55.271 94.7911 55.7517 93.3895 56.1544 91.9842C56.4909 90.8098 55.8213 89.8379 55.0902 89.0066C53.4603 87.153 52.246 85.1469 52.4021 82.5128C50.5571 84.0656 49.7517 86.2982 50.7013 89.1597C50.9716 89.974 51.4343 90.7243 51.7101 91.5373C51.9853 92.3489 52.1137 93.1195 50.9382 93.4785C49.3056 93.977 47.0507 93.2007 45.9793 91.6265C45.6695 91.1713 45.382 90.7009 45.0842 90.2375C44.9302 90.2564 44.7763 90.2752 44.6223 90.2941C44.6223 91.2694 44.5143 92.2602 44.6517 93.2157C44.7985 94.2372 45.0849 95.2636 45.4812 96.217C45.8352 97.0687 45.714 97.6501 44.9398 98.0759C44.0255 98.5787 43.5267 98.0628 43.2123 97.2675C41.6644 93.3512 41.6807 89.4976 43.877 85.8226C44.1299 85.3995 44.999 85.1427 45.5587 85.1785C45.8965 85.2001 46.2787 85.8956 46.4833 86.3579C46.9712 87.4597 47.3656 88.6029 47.9206 89.8519C48.1339 90.0155 48.2243 90.0566 48.3148 90.0978C48.2551 89.9468 48.1955 89.7958 48.1358 89.6448Z" fill="#FF5E00"/>
<path d="M48.084 89.6956C48.1951 89.7959 48.2548 89.9469 48.3144 90.0979C48.224 90.0568 48.1335 90.0156 47.9925 89.9164C47.9721 89.8209 48.0023 89.7835 48.084 89.6956Z" fill="white"/>
</g>
<defs>
<clipPath id="clip0_2036_3071">
<rect width="379" height="160" fill="white"/>
</clipPath>
</defs>
</svg>
